{
.appVersion = "3227";
.formatVersion = 3;
DisplayStrings = (
"ÄǞËḦÏḮÖȪṎÜǗUṲǙǛǕṺẄẌŸ
ȦḂĊḊĖḞĠḢİṀṄȮȰṖṘṤṦṠṨṪẆẊẎŻ
ẰẦȀÀỀȄÈḔȈÌǸỒȌÒỜṐȐȔǛÙỪẀỲ
ÁẮẤĆḈÉẾḖǴÍḮḰĹḾŃÓỐỚṒǾṌṔŔŚṤÚǗƯỨṸẂÝŹ
ŐŰ
ÂẤẬẦẨẪḒÊẾḘỆỀỂỄÎḼṊÔỐỘỒỔỖṰÛṶŴŶẐ
ǍČDĎǮǦȞǏǨĽŇǑŘŠṦŤǓǙŽ
ĂẮẶẰẲẴȂḜȆĞḪȊȎȒŬȖ
ÅḀŮ
ẴẪÃỄẼḚĨḬⱢÑỖỠÕṌṎȬỮŨṸṴṼỸẵẫãễẽḛĩḭɫñỗỡõṍṏȭữũṹṵṽỹ
ǞǠĀǢḆḎĒḖḔḠĪḴḸḺṈȪȰŌṒṐǬȬṜṞṮǕŪṺȲẔǟǡāǣḇḏēḗḕḡīḵḹḻṉȫȱōṓṑǭȭṝṟṯǖūṻȳẕ
ẲẨẢƁƇƊỂẺƑƓꞪỈƘƝỔỎỞƤɊƬƮỦỬƲⱲƳỶ
ȀȄȈȌȐȔȁȅȉȍȑȕ
",
"ABCDEFGHIJKLMN
OPQRSTUVWXYZ",
"Ƙ",
"/hooktop.part",
"ƇƓ",
"HɾH
Haɾ",
"ɾ",
"/_part.cut"
);
axes = (
{
name = "Element Shape";
tag = ELSH;
}
);
customParameters = (
{
name = "Use Typo Metrics";
value = 1;
},
{
name = blueScale;
value = 0.04;
},
{
name = blueShift;
value = 7;
},
{
name = blueFuzz;
value = 1;
},
{
name = "Virtual Master";
value = (
{
Axis = "Element Shape";
Location = 0;
}
);
},
{
name = "Virtual Master";
value = (
{
Axis = "Element Shape";
Location = 50;
}
);
},
{
name = "Virtual Master";
value = (
{
Axis = "Element Shape";
Location = 100;
}
);
},
{
name = "Axis Mappings";
value = {
ELSH = {
0 = 0;
50 = 50;
100 = 100;
};
};
},
{
name = "Variable Font Origin";
value = m01;
}
);
date = "2023-02-21 22:06:01 +0000";
familyName = Danfo;
featurePrefixes = (
{
automatic = 1;
code = "languagesystem DFLT dflt;

languagesystem latn dflt;
languagesystem latn AZE;
languagesystem latn CRT;
languagesystem latn KAZ;
languagesystem latn TAT;
languagesystem latn TRK;
languagesystem latn ROM;
languagesystem latn MOL;
languagesystem latn CAT;
";
name = Languagesystems;
}
);
features = (
{
automatic = 1;
code = "feature locl;
feature subs;
feature sinf;
feature sups;
feature numr;
feature dnom;
feature frac;
feature ordn;
feature lnum;
feature pnum;
feature tnum;
feature onum;
feature case;
feature zero;
feature ss01;
";
tag = aalt;
},
{
automatic = 1;
code = "lookup ccmp_DFLT_1 {
	lookupflag 0;
	sub acutecomb macroncomb by acutecomb_macroncomb;
	sub brevecomb acutecomb by brevecomb_acutecomb;
	sub brevecomb gravecomb by brevecomb_gravecomb;

glyphs = (
{
color = 2;
glyphname = A;
layers = (
{
anchors = (
{
name = bottom;
pos = (337,0);
},
{
name = ogonek;
pos = (442,0);
},
{
name = top;
pos = (345,716);
}
);
layerId = m01;
shapes = (
{
closed = 1;
nodes = (
(286,0,l),
(286,439,l),
(260,439,ls),
(243,439,o),
(226,450,o),
(226,472,cs),
(226,488,o),
(236,505,o),
(260,505,cs),
(360,505,ls),
(381,505,o),
(394,492,o),
(394,473,cs),
(394,453,o),
(381,439,o),
(360,439,cs),
(344,439,l),
(344,0,l),
(671,0,l),
(671,434,l),
(611,434,o),
(601,451,o),
(564,517,cs),
(452,716,l),
(258,716,l),
(137,514,ls),
(95,445,o),
(77,434,o),
(29,434,c),
(29,0,l)
);
},
{
closed = 1;
nodes = (
(309,647,l),
(357,564,l),
(260,564,l)
);
}
);
width = 700;
}
);
unicode = 65;
},
{
glyphname = AE;
layers = (
{
anchors = (
{
name = bottom;
pos = (337,0);
},
{
name = ogonek;
pos = (442,0);
},
{
name = top;
pos = (544,716);
}
);
layerId = m01;
shapes = (
{
closed = 1;
nodes = (
(528,580,l),
(452,716,l),
(398,716,l),
(167,514,ls),
(107,461,o),
(77,434,o),
(29,434,c),
(29,0,l),
(308,0,l),
(308,439,l),
(296,439,ls),
(279,439,o),
(262,450,o),
(262,472,cs),
(262,488,o),
(272,505,o),
(296,505,cs),
(377,505,ls),
(398,505,o),
(411,492,o),
(411,473,cs),
(411,453,o),
(398,439,o),
(377,439,cs),
(366,439,l),
(366,0,l),
(528,0,l)
);
},
{
closed = 1;
nodes = (
(411,632,l),
(411,564,l),
(334,564,l)
);
},
{
closed = 1;
nodes = (
(411,500,l),
(436,500,l),
(436,460,o),
(419,434,o),
(369,434,cs),
(366,434,l),
(365,0,l),
(861,0,l),
(861,500,l),
(771,500,l),
(771,460,o),
(754,439,o),
(704,439,cs),
(577,439,l),
(577,505,l),
(694,505,l),
(694,575,l),
(577,575,l),
(577,636,l),
(698,636,ls),
(748,636,o),
(765,609,o),
(765,569,c),
(855,569,l),
(855,716,l),
(411,716,l)
);
}
);
width = 890;
}
);
metricLeft = A;
metricRight = E;
unicode = 198;
},
{
color = 2;
glyphname = B;
layers = (
{
anchors = (
{
name = bottom;
pos = (317,0);
},
{
name = center;
pos = (333,358);
},
{
name = hookjoin;
pos = (29,636);
},
{
name = top;
pos = (322,716);
}
);
layerId = m01;
shapes = (
{
closed = 1;
nodes = (
(425,0,ls),
(534,0,o),
(614,79,o),
(614,186,cs),
(614,375,ls),
(614,518,o),
(525,539,o),
(456,539,c),
(456,544,l),
(474,544,ls),
(511,544,o),
(589,560,o),
(589,628,c),
(589,712,o),
(500,716,o),
(460,716,c),
(29,716,l),
(29,636,l),
(79,636,o),
(96,609,o),
(96,569,cs),
(96,495,ls),
(96,455,o),
(79,434,o),
(29,434,c),
(29,0,l)
);
},
{
closed = 1;
nodes = (
(264,505,l),
(379,505,ls),
(407,505,o),
(420,493,o),
(420,472,cs),
(420,450,o),
(404,439,o),
(378,439,cs),
(264,439,l)
);
},
{
closed = 1;
nodes = (
(264,636,l),
(359,636,ls),
(387,636,o),
(400,622,o),
(400,604,cs),
(400,586,o),
(384,575,o),
(358,575,cs),
(264,575,l)
);
}
);
width = 639;
}
);
metricLeft = H;
unicode = 66;
},
{
glyphname = C;
layers = (
{
anchors = (
{
name = bottom;
pos = (328,0);
},
{
name = hooktop;
pos = (587,564);
},
{
name = top;
pos = (328,716);
}
);
layerId = m01;
shapes = (
{
closed = 1;
nodes = (
(398,-8,ls),
(507,-8,o),
(587,71,o),
(587,178,cs),
(587,500,l),
(423,500,l),
(423,460,o),
(406,439,o),
(382,439,cs),
(272,439,ls),
(248,439,o),
(231,460,o),
(231,500,cs),
(231,547,ls),
(231,609,o),
(248,636,o),
(298,636,cs),
(356,636,ls),
(406,636,o),
(423,609,o),
(423,564,c),
(587,564,l),
(587,656,o),
(523,722,o),
(436,722,cs),
(218,722,ls),
(109,722,o),
(29,643,o),
(29,536,cs),
(29,178,ls),
(29,71,o),
(109,-8,o),
(218,-8,c)
);
},
{
pos = (-15,5);
ref = cutdetail.part;
}
);
width = 616;
}
);
unicode = 67;
},
{
color = 2;
glyphname = D;
layers = (
{
anchors = (
{
name = bottom;
pos = (303,0);
},
{
name = center;
pos = (303,358);
},
{
name = hookjoin;
pos = (29,636);
},
{
name = top;
pos = (322,716);
}
);
layerId = m01;
shapes = (
{
closed = 1;
nodes = (
(405,0,ls),
(514,0,o),
(594,79,o),
(594,186,cs),
(594,530,ls),
(594,637,o),
(514,716,o),
(405,716,c),
(29,716,l),
(29,636,l),
(79,636,o),
(96,609,o),
(96,569,cs),
(96,495,ls),
(96,455,o),
(79,434,o),
(29,434,c),
(29,0,l)
);
},
{
closed = 1;
nodes = (
(264,636,l),
(335,636,ls),
(385,636,o),
(402,609,o),
(402,569,cs),
(402,500,ls),
(402,460,o),
(385,439,o),
(335,439,cs),
(264,439,l)
);
}
);
width = 623;
}
);
metricLeft = H;
metricRight = O;
unicode = 68;
},
{
color = 2;
glyphname = E;
layers = (
{
anchors = (
{
name = bottom;
pos = (288,0);
},
{
name = top;
pos = (298,716);
}
);
layerId = m01;
shapes = (
{
closed = 1;
nodes = (
(547,0,l),
(547,500,l),
(457,500,l),
(457,460,o),
(440,439,o),
(390,439,cs),
(263,439,l),
(263,505,l),
(380,505,l),
(380,575,l),
(263,575,l),
(263,636,l),
(384,636,ls),
(434,636,o),
(451,609,o),
(451,569,c),
(541,569,l),
(541,716,l),
(29,716,l),
(29,636,l),
(79,636,o),
(97,604,o),
(97,564,cs),
(97,500,ls),
(97,460,o),
(80,434,o),
(30,434,c),
(29,0,l)
);
}
);
width = 576;
}
);
metricLeft = H;
metricWidth = "576/w";
unicode = 69;
},
{
glyphname = Ezh;
layers = (
{
anchors = (
{
name = top;
pos = (317,716);
}
);
background = {
shapes = (
{
ref = Z;
}
);
};
layerId = m01;
shapes = (
{
closed = 1;
nodes = (
(221,633,ls),
(171,633,o),
(154,608,o),
(154,568,c),
(64,568,l),
(64,715,l),
(567,716,l),
(567,642,l),
(457,569,l),
(529,569,o),
(610,547,o),
(610,404,cs),
(610,180,ls),
(610,73,o),
(530,-6,o),
(421,-6,cs),
(214,-6,ls),
(105,-6,o),
(25,73,o),
(25,180,cs),
(25,497,l),
(209,497,l),
(209,462,o),
(226,439,o),
(250,439,cs),
(363,439,ls),
(396,439,o),
(411,454,o),
(411,474,cs),
(411,495,o),
(396,505,o),
(363,505,cs),
(288,505,l),
(288,575,l),
(384,633,l)
);
}
);
width = 630;
}
);
unicode = 439;
},
{
color = 2;
glyphname = F;
layers = (
{
anchors = (
{
name = bottom;
pos = (325,0);
},
{
name = top;
pos = (287,716);
}
);
layerId = m01;
shapes = (
{
closed = 1;
nodes = (
(36,0,l),
(444,0,l),
(444,439,l),
(330,439,ls),
(280,439,o),
(263,462,o),
(263,502,c),
(381,502,l),
(381,572,l),
(263,572,l),
(263,636,l),
(381,636,ls),
(431,636,o),
(448,609,o),
(448,569,c),
(538,569,l),
(538,716,l),
(29,716,l),
(29,636,l),
(79,636,o),
(97,604,o),
(97,564,cs),
(97,500,ls),
(97,460,o),
(80,434,o),
(30,434,c),
(29,0,l)
);
}
);
width = 554;
}
);
metricLeft = H;
unicode = 70;
},
{
color = 2;
glyphname = G;
layers = (
{
anchors = (
{
name = bottom;
pos = (328,0);
},
{
name = hooktop;
pos = (587,564);
},
{
name = top;
pos = (324,716);
}
);
layerId = m01;
shapes = (
{
closed = 1;
nodes = (
(302,-8,ls),
(405,-8,o),
(439,48,o),
(439,110,cs),
(439,172,l),
(482,172,o),
(497,148,o),
(497,113,cs),
(497,0,l),
(587,0,l),
(587,500,l),
(423,500,l),
(423,454,o),
(399,439,o),
(375,439,cs),
(272,439,ls),
(248,439,o),
(231,460,o),
(231,500,cs),
(231,547,ls),
(231,609,o),
(248,636,o),
(298,636,cs),
(356,636,ls),
(406,636,o),
(423,609,o),
(423,564,c),
(587,564,l),
(587,656,o),
(523,722,o),
(436,722,cs),
(218,722,ls),
(109,722,o),
(29,643,o),
(29,536,cs),
(29,178,ls),
(29,71,o),
(109,-8,o),
(218,-8,cs)
);
},
{
pos = (-15,5);
ref = cutdetail.part;
}
);
width = 616;
}
);
unicode = 71;
},
{
color = 2;
glyphname = H;
lastChange = "2023-12-05 14:56:10 +0000";
layers = (
{
anchors = (
{
name = bottom;
pos = (349,0);
},
{
name = center;
pos = (349,358);
},
{
name = top;
pos = (349,716);
},
{
name = topleft;
pos = (0,716);
}
);
layerId = m01;
shapes = (
{
closed = 1;
nodes = (
(671,0,l),
(671,434,l),
(621,434,o),
(604,460,o),
(604,500,cs),
(604,564,ls),
(604,604,o),
(621,636,o),
(671,636,c),
(671,716,l),
(379,716,l),
(379,631,l),
(424,631,o),
(442,609,o),
(446,575,c),
(254,575,l),
(258,609,o),
(276,631,o),
(321,631,c),
(321,716,l),
(29,716,l),
(29,636,l),
(79,636,o),
(96,604,o),
(96,564,cs),
(96,500,ls),
(96,460,o),
(79,434,o),
(29,434,c),
(29,0,l),
(321,0,l),
(321,439,l),
(271,439,o),
(254,460,o),
(254,500,cs),
(254,505,l),
(446,505,l),
(446,500,ls),
(446,460,o),
(429,439,o),
(379,439,c),
(379,0,l)
);
},
{
pos = (29,125);
ref = _part.cut;
},
{
pos = (671,125);
ref = _part.cut;
scale = (-1,1);
}
);
width = 700;
},
{
anchors = (
{
name = bottom;
pos = (349,0);
},
{
name = center;
pos = (349,358);
},
{
name = top;
pos = (349,716);
},
{
name = topleft;
pos = (0,716);
}
);
associatedMasterId = m01;
attr = {
coordinates = (
50
);
};
layerId = "6CC9E9F9-5434-4C6E-981D-24686A30B79F";
name = "{50} Dec 5, 23 at 09:44";
shapes = (
{
closed = 1;
nodes = (
(671,0,l),
(671,434,l),
(621,434,o),
(604,460,o),
(604,500,cs),
(604,564,ls),
(604,604,o),
(621,636,o),
(671,636,c),
(671,716,l),
(379,716,l),
(379,631,l),
(424,631,o),
(442,609,o),
(446,575,c),
(254,575,l),
(258,609,o),
(276,631,o),
(321,631,c),
(321,716,l),
(29,716,l),
(29,636,l),
(79,636,o),
(96,604,o),
(96,564,cs),
(96,500,ls),
(96,460,o),
(79,434,o),
(29,434,c),
(29,0,l),
(321,0,l),
(321,439,l),
(271,439,o),
(254,460,o),
(254,500,cs),
(254,505,l),
(446,505,l),
(446,500,ls),
(446,460,o),
(429,439,o),
(379,439,c),
(379,0,l)
);
},
{
pos = (29,125);
ref = _part.cut;
},
{
pos = (671,125);
ref = _part.cut;
scale = (-1,1);
}
);
width = 700;
},
{
anchors = (
{
name = bottom;
pos = (349,0);
},
{
name = center;
pos = (349,358);
},
{
name = top;
pos = (349,716);
},
{
name = topleft;
pos = (0,716);
}
);
associatedMasterId = m01;
attr = {
coordinates = (
100
);
};
layerId = "88568424-A25A-42D4-9830-A6B0D4442029";
name = "Dec 5, 23 at 09:43";
shapes = (
{
closed = 1;
nodes = (
(671,0,l),
(671,434,l),
(621,434,o),
(604,460,o),
(604,500,cs),
(604,564,ls),
(604,604,o),
(621,636,o),
(671,636,c),
(671,716,l),
(379,716,l),
(379,631,l),
(424,631,o),
(442,609,o),
(446,575,c),
(254,575,l),
(258,609,o),
(276,631,o),
(321,631,c),
(321,716,l),
(29,716,l),
(29,636,l),
(79,636,o),
(96,604,o),
(96,564,cs),
(96,500,ls),
(96,460,o),
(79,434,o),
(29,434,c),
(29,0,l),
(321,0,l),
(321,439,l),
(271,439,o),
(254,460,o),
(254,500,cs),
(254,505,l),
(446,505,l),
(446,500,ls),
(446,460,o),
(429,439,o),
(379,439,c),
(379,0,l)
);
},
{
pos = (29,125);
ref = _part.cut;
},
{
pos = (671,125);
ref = _part.cut;
scale = (-1,1);
}
);
width = 700;
}
);
unicode = 72;
},
{
color = 2;
glyphname = I;
layers = (
{
anchors = (
{
name = bottom;
pos = (187,0);
},
{
name = ogonek;
pos = (321,0);
},
{
name = top;
pos = (175,716);
},
{
name = topleft;
pos = (1,716);
}
);
layerId = m01;
shapes = (
{
closed = 1;
nodes = (
(321,0,l),
(321,434,l),
(271,434,o),
(254,460,o),
(254,500,cs),
(254,564,ls),
(254,604,o),
(271,636,o),
(321,636,c),
(321,716,l),
(29,716,l),
(29,636,l),
(79,636,o),
(96,609,o),
(96,569,cs),
(96,495,ls),
(96,455,o),
(79,434,o),
(29,434,c),
(29,0,l)
);
}
);
width = 350;
}
);
metricLeft = H;
metricRight = H;
unicode = 73;
},
{
color = 4;
glyphname = J;
layers = (
{
anchors = (
{
name = bottom;
pos = (281,0);
},
{
name = top;
pos = (392,716);
}
);
layerId = m01;
shapes = (
{
closed = 1;
nodes = (
(349,0,ls),
(458,0,o),
(538,79,o),
(538,186,cs),
(538,434,l),
(488,434,o),
(471,460,o),
(471,500,cs),
(471,564,ls),
(471,604,o),
(488,636,o),
(538,636,c),
(538,716,l),
(246,716,l),
(246,636,l),
(296,636,o),
(313,609,o),
(313,569,cs),
(313,500,ls),
(313,460,o),
(296,439,o),
(246,439,cs),
(30,439,l),
(30,0,l)
);
}
);
width = 574;
}
);
unicode = 74;
},
{
color = 4;
glyphname = K;
layers = (
{
anchors = (
{
name = bottom;
pos = (331,0);
},
{
name = hookjoin;
pos = (648,636);
},
{
name = top;
pos = (345,716);
}
);
guides = (
{
angle = 90;
pos = (286,525);
}
);
layerId = m01;
shapes = (
{
closed = 1;
nodes = (
(312,0,l),
(312,439,l),
(266,439,o),
(249,460,o),
(249,500,cs),
(249,564,ls),
(249,604,o),
(266,631,o),
(312,631,c),
(312,716,l),
(29,716,l),
(29,636,l),
(79,636,o),
(96,604,o),
(96,564,cs),
(96,500,ls),
(96,460,o),
(79,434,o),
(29,434,c),
(29,0,l)
);
},
{
closed = 1;
nodes = (
(668,0,l),
(668,435,l),
(649,435,ls),
(622,435,o),
(608,449,o),
(551,512,cs),
(462,610,l),
(341,536,l),
(399,467,l),
(410,454,o),
(400,439,o),
(382,439,cs),
(370,439,l),
(370,0,l)
);
},
{
closed = 1;
nodes = (
(568,613,ls),
(584,620,o),
(611,636,o),
(638,636,cs),
(648,636,l),
(648,716,l),
(361,716,l),
(361,631,l),
(382,631,ls),
(403,631,o),
(406,614,o),
(391,607,cs),
(198,522,l),
(198,446,l)
);
}
);
width = 697;
}
);
metricLeft = H;
unicode = 75;
},
{
glyphname = Khook;
layers = (
{
anchors = (
{
name = bottom;
pos = (331,0);
},
{
name = hookjoin;
pos = (648,636);
},
{
name = top;
pos = (345,716);
}
);
layerId = m01;
shapes = (
{
closed = 1;
nodes = (
(312,0,l),
(312,439,l),
(266,439,o),
(249,460,o),
(249,500,cs),
(249,564,ls),
(249,604,o),
(266,631,o),
(312,631,c),
(312,716,l),
(29,716,l),
(29,636,l),
(79,636,o),
(96,604,o),
(96,564,cs),
(96,500,ls),
(96,460,o),
(79,434,o),
(29,434,c),
(29,0,l)
);
},
{
closed = 1;
nodes = (
(668,0,l),
(668,435,l),
(649,435,ls),
(622,435,o),
(608,449,o),
(551,512,cs),
(462,610,l),
(341,536,l),
(399,467,l),
(410,454,o),
(400,439,o),
(382,439,cs),
(370,439,l),
(370,0,l)
);
},
{
closed = 1;
nodes = (
(568,613,ls),
(584,620,o),
(611,636,o),
(638,636,cs),
(648,636,l),
(648,716,l),
(361,716,l),
(361,631,l),
(382,631,ls),
(403,631,o),
(406,614,o),
(391,607,cs),
(198,522,l),
(198,446,l)
);
},
{
closed = 1;
nodes = (
(695,636,o),
(712,592,o),
(712,547,c),
(835,547,l),
(835,638,o),
(776,716,o),
(686,716,cs),
(539,716,l),
(539,636,l),
(648,636,l)
);
}
);
width = 836;
}
);
unicode = 408;
},
{
color = 2;
glyphname = L;
layers = (
{
anchors = (
{
name = bottom;
pos = (298,0);
},
{
name = center;
pos = (347,358);
},
{
name = top;
pos = (167,716);
},
{
name = topright;
pos = (669,716);
}
);
layerId = m01;
shapes = (
{
closed = 1;
nodes = (
(553,0,l),
(553,544,l),
(458,544,l),
(458,500,ls),
(458,460,o),
(441,439,o),
(391,439,c),
(255,439,l),
(255,564,l),
(255,604,o),
(272,636,o),
(322,636,c),
(322,716,l),
(29,716,l),
(29,636,l),
(79,636,o),
(97,604,o),
(97,564,cs),
(97,500,ls),
(97,460,o),
(80,434,o),
(30,434,c),
(29,0,l)
);
}
);
width = 584;
}
);
metricLeft = H;
unicode = 76;
},
{
color = 2;
glyphname = M;
layers = (
{
anchors = (
{
name = bottom;
pos = (379,0);
},
{
name = top;
pos = (363,716);
}
);
layerId = m01;
shapes = (
{
closed = 1;
nodes = (
(339,0,l),
(339,439,l),
(321,439,ls),
(271,439,o),
(254,462,o),
(254,502,cs),
(254,609,l),
(369,477,l),
(481,609,l),
(481,504,ls),
(481,464,o),
(464,439,o),
(414,439,cs),
(397,439,l),
(397,0,l),
(706,-1,l),
(706,434,l),
(656,434,o),
(639,454,o),
(639,494,cs),
(639,568,ls),
(639,608,o),
(656,635,o),
(706,635,c),
(706,716,l),
(472,716,l),
(369,592,l),
(263,716,l),
(29,716,l),
(29,633,l),
(79,633,o),
(96,606,o),
(96,566,cs),
(96,495,ls),
(96,455,o),
(79,434,o),
(29,434,c),
(29,0,l)
);
}
);
width = 735;
}
);
metricLeft = H;
metricRight = H;
unicode = 77;
},
{
color = 4;
glyphname = N;
layers = (
{
anchors = (
{
name = bottom;
pos = (347,0);
},
{
name = ogonek;
pos = (690,0);
},
{
name = top;
pos = (344,716);
},
{
name = topleft;
pos = (347,716);
}
);
background = {
shapes = (
{
closed = 1;
nodes = (
(317,0,l),
(317,439,l),
(269,439,o),
(252,461,o),
(252,501,cs),
(253,716,l),
(27,716,l),
(27,636,l),
(80,636,o),
(97,607,o),
(97,567,cs),
(97,500,ls),
(97,457,o),
(88,434,o),
(27,434,c),
(27,0,l)
);
},
{
closed = 1;
nodes = (
(476,388,l),
(476,498,l),
(253,716,l),
(186,670,l)
);
},
{
closed = 1;
nodes = (
(667,0,l),
(667,434,l),
(617,434,o),
(600,460,o),
(600,500,cs),
(600,564,ls),
(600,604,o),
(617,636,o),
(667,636,c),
(667,716,l),
(375,716,l),
(375,636,l),
(425,636,o),
(442,609,o),
(442,569,cs),
(442,500,ls),
(442,460,o),
(425,439,o),
(375,439,c),
(375,0,l)
);
}
);
};
guides = (
{
pos = (431,445);
}
);
layerId = m01;
shapes = (
{
closed = 1;
nodes = (
(322,0,l),
(322,439,l),
(274,439,o),
(257,461,o),
(257,501,cs),
(257,716,l),
(29,716,l),
(29,636,l),
(82,636,o),
(99,607,o),
(99,567,cs),
(99,500,ls),
(99,457,o),
(90,434,o),
(29,434,c),
(29,0,l)
);
},
{
closed = 1;
nodes = (
(667,0,l),
(667,434,l),
(617,434,o),
(600,460,o),
(600,500,cs),
(600,564,ls),
(600,604,o),
(617,636,o),
(667,636,c),
(667,716,l),
(375,716,l),
(375,636,l),
(425,636,o),
(442,609,o),
(442,569,cs),
(442,500,ls),
(442,460,o),
(425,439,o),
(375,439,c),
(375,0,l)
);
},
{
closed = 1;
nodes = (
(486,414,l),
(257,716,l),
(228,632,l),
(461,323,l)
);
}
);
width = 696;
}
);
metricLeft = H;
metricRight = H;
unicode = 78;
},
{
color = 2;
glyphname = O;
layers = (
{
anchors = (
{
name = bottom;
pos = (324,0);
},
{
name = center;
pos = (324,358);
},
{
name = horn;
pos = (558,642);
},
{
name = ogonek;
pos = (416,-8);
},
{
name = top;
pos = (317,716);
},
{
name = topleft;
pos = (-13,716);
}
);
layerId = m01;
shapes = (
{
closed = 1;
nodes = (
(416,-8,ls),
(525,-8,o),
(605,71,o),
(605,178,cs),
(605,536,ls),
(605,643,o),
(525,722,o),
(416,722,cs),
(218,722,ls),
(109,722,o),
(29,643,o),
(29,536,cs),
(29,178,ls),
(29,71,o),
(109,-8,o),
(218,-8,cs)
);
},
{
pos = (-25,5);
ref = cutdetail.part;
},
{
closed = 1;
nodes = (
(253,439,o),
(229,450,o),
(230,492,cs),
(231,569,ls),
(232,609,o),
(248,636,o),
(298,636,cs),
(336,636,ls),
(396,636,o),
(403,609,o),
(403,569,cs),
(403,492,ls),
(403,450,o),
(380,439,o),
(366,439,cs),
(267,439,ls)
);
}
);
width = 634;
}
);
unicode = 79;
},
{
glyphname = Oslash;
layers = (
{
layerId = m01;
shapes = (
{
ref = O;
},
{
closed = 1;
nodes = (
(488,672,l),
(560,792,l),
(460,792,l),
(383,672,l)
);
},
{
closed = 1;
nodes = (
(166,-59,l),
(224,58,l),
(119,59,l),
(66,-59,l)
);
}
);
width = 634;
}
);
unicode = 216;
},
{
color = 4;
glyphname = P;
layers = (
{
anchors = (
{
name = bottom;
pos = (336,0);
},
{
name = hookjoin;
pos = (29,636);
},
{
name = top;
pos = (306,713);
}
);
layerId = m01;
shapes = (
{
closed = 1;
nodes = (
(469,434,l),
(331,434,ls),
(281,434,o),
(264,460,o),
(264,497,c),
(474,497,ls),
(511,497,o),
(589,518,o),
(589,605,cs),
(589,711,o),
(500,716,o),
(460,716,cs),
(29,716,l),
(29,636,l),
(79,636,o),
(96,609,o),
(96,569,cs),
(96,495,ls),
(96,455,o),
(79,434,o),
(29,434,c),
(29,0,l),
(469,0,l)
);
},
{
closed = 1;
nodes = (
(264,636,l),
(369,636,ls),
(397,636,o),
(410,620,o),
(410,599,cs),
(410,574,o),
(394,561,o),
(368,561,cs),
(264,561,l)
);
}
);
width = 584;
}
);
metricLeft = H;
unicode = 80;
},
{
color = 4;
glyphname = Q;
layers = (
{
anchors = (
{
name = bottom;
pos = (352,0);
},
{
name = center;
pos = (334,358);
},
{
name = ogonek;
pos = (428,0);
},
{
name = top;
pos = (352,716);
},
{
name = topleft;
pos = (-3,716);
},
{
name = topright;
pos = (670,716);
}
);
layerId = m01;
shapes = (
{
closed = 1;
nodes = (
(436,-8,ls),
(545,-8,o),
(625,71,o),
(625,178,cs),
(625,536,ls),
(625,643,o),
(545,722,o),
(436,722,cs),
(218,722,ls),
(109,722,o),
(29,643,o),
(29,536,cs),
(29,178,ls),
(29,71,o),
(109,-8,o),
(218,-8,cs)
);
},
{
closed = 1;
nodes = (
(494,-140,l),
(494,-60,l),
(423,-60,ls),
(388,-60,o),
(364,-48,o),
(364,-14,c),
(364,76,l),
(279,76,l),
(279,-13,l),
(279,-100,o),
(325,-140,o),
(424,-140,c)
);
},
{
pos = (-15,5);
ref = cutdetail.part;
},
{
closed = 1;
nodes = (
(248,439,o),
(231,460,o),
(231,500,cs),
(231,569,ls),
(231,609,o),
(248,636,o),
(298,636,cs),
(356,636,ls),
(406,636,o),
(423,609,o),
(423,569,cs),
(423,500,ls),
(423,460,o),
(406,439,o),
(382,439,cs),
(272,439,ls)
);
}
);
width = 654;
}
);
metricLeft = O;
metricRight = O;
unicode = 81;
},
{
color = 2;
glyphname = R;
layers = (
{
anchors = (
{
name = bottom;
pos = (351,0);
},
{
name = top;
pos = (311,716);
}
);
layerId = m01;
shapes = (
{
closed = 1;
nodes = (
(671,-8,l),
(671,434,l),
(553,434,o),
(615,539,o),
(456,539,c),
(456,544,l),
(474,544,ls),
(511,544,o),
(589,560,o),
(589,628,c),
(589,712,o),
(500,716,o),
(460,716,c),
(29,716,l),
(29,636,l),
(79,636,o),
(96,609,o),
(96,569,cs),
(96,495,ls),
(96,455,o),
(79,434,o),
(29,434,c),
(29,0,l),
(322,0,l),
(322,439,l),
(271,439,o),
(254,460,o),
(254,500,cs),
(254,507,l),
(314,507,ls),
(359,507,o),
(379,478,o),
(379,434,cs),
(380,117,ls),
(380,44,o),
(413,-8,o),
(527,-8,cs)
);
},
{
closed = 1;
nodes = (
(254,636,l),
(359,636,ls),
(387,636,o),
(400,622,o),
(400,604,cs),
(400,582,o),
(384,571,o),
(358,571,cs),
(254,571,l)
);
}
);
width = 699;
}
);
metricLeft = H;
unicode = 82;
},
{
color = 2;
glyphname = S;
layers = (
{
anchors = (
{
name = bottom;
pos = (322,0);
},
{
name = top;
pos = (292,716);
}
);
background = {
shapes = (
{
closed = 1;
nodes = (
(406,0,ls),
(515,0,o),
(595,77,o),
(595,184,cs),
(595,356,ls),
(595,514,o),
(505,556,o),
(338,561,cs),
(271,563,ls),
(227,564,o),
(214,580,o),
(214,599,cs),
(214,624,o),
(229,636,o),
(276,636,cs),
(313,636,ls),
(363,636,o),
(380,615,o),
(380,591,c),
(564,591,l),
(564,664,o),
(500,716,o),
(413,716,cs),
(178,716,ls),
(111,716,o),
(30,699,o),
(30,608,cs),
(30,531,o),
(84,500,o),
(141,498,cs),
(349,490,ls),
(378,489,o),
(397,481,o),
(397,463,cs),
(397,449,o),
(387,439,o),
(349,439,cs),
(30,439,l),
(30,0,l)
);
}
);
};
layerId = m01;
shapes = (
{
closed = 1;
nodes = (
(406,0,ls),
(515,0,o),
(595,77,o),
(595,184,cs),
(595,356,ls),
(595,499,o),
(524,555,o),
(338,561,cs),
(274,563,ls),
(234,564,o),
(217,574,o),
(217,599,cs),
(217,624,o),
(236,636,o),
(271,636,cs),
(319,636,ls),
(362,636,o),
(386,620,o),
(386,591,c),
(560,591,l),
(560,664,o),
(507,716,o),
(419,716,cs),
(204,716,ls),
(84,716,o),
(33,679,o),
(33,608,cs),
(33,543,o),
(76,503,o),
(160,499,cs),
(349,490,ls),
(381,488,o),
(397,482,o),
(397,463,cs),
(397,442,o),
(382,434,o),
(349,434,cs),
(30,434,l),
(30,0,l)
);
}
);
width = 625;
}
);
unicode = 83;
},
{
color = 2;
glyphname = T;
layers = (
{
anchors = (
{
name = bottom;
pos = (271,0);
},
{
name = center;
pos = (271,358);
},
{
name = top;
pos = (265,716);
}
);
layerId = m01;
shapes = (
{
closed = 1;
nodes = (
(502,0,l),
(502,434,l),
(417,434,ls),
(367,434,o),
(350,460,o),
(350,500,cs),
(350,636,l),
(375,636,ls),
(425,636,o),
(442,603,o),
(442,563,cs),
(442,511,l),
(532,511,l),
(532,716,l),
(10,716,l),
(10,511,l),
(100,511,l),
(100,564,ls),
(100,604,o),
(117,636,o),
(167,636,cs),
(192,636,l),
(192,495,ls),
(192,455,o),
(175,434,o),
(125,434,cs),
(40,434,l),
(40,0,l)
);
}
);
width = 542;
}
);
unicode = 84;
},
{
glyphname = Thook;
layers = (
{
anchors = (
{
name = bottom;
pos = (331,0);
},
{
name = center;
pos = (331,358);
},
{
name = top;
pos = (325,716);
}
);
layerId = m01;
shapes = (
{
closed = 1;
nodes = (
(252,495,ls),
(252,455,o),
(235,434,o),
(185,434,cs),
(100,434,l),
(100,0,l),
(562,0,l),
(562,434,l),
(477,434,ls),
(427,434,o),
(410,460,o),
(410,500,cs),
(410,636,l),
(435,636,ls),
(485,636,o),
(502,603,o),
(502,563,cs),
(502,511,l),
(592,511,l),
(592,716,l),
(252,716,l)
);
},
{
pos = (9,0);
ref = hook.part;
}
);
width = 602;
}
);
unicode = 428;
},
{
color = 2;
glyphname = U;
layers = (
{
anchors = (
{
name = bottom;
pos = (344,0);
},
{
name = horn;
pos = (658,636);
},
{
name = ogonek;
pos = (618,10);
},
{
name = top;
pos = (346,716);
}
);
layerId = m01;
shapes = (
{
closed = 1;
nodes = (
(364,-8,ls),
(462,-8,o),
(496,48,o),
(496,110,cs),
(496,172,l),
(539,172,o),
(549,148,o),
(555,113,cs),
(574,0,l),
(658,0,l),
(658,434,l),
(608,434,o),
(591,460,o),
(591,500,cs),
(591,564,ls),
(591,604,o),
(608,636,o),
(658,636,c),
(658,716,l),
(381,716,l),
(381,631,l),
(427,631,o),
(443,604,o),
(443,564,cs),
(443,495,ls),
(443,455,o),
(426,434,o),
(402,434,cs),
(302,434,ls),
(278,434,o),
(261,455,o),
(261,495,cs),
(261,564,ls),
(261,604,o),
(278,631,o),
(323,631,c),
(323,716,l),
(36,716,l),
(36,636,l),
(86,636,o),
(103,604,o),
(103,564,cs),
(103,500,ls),
(103,460,o),
(86,434,o),
(36,434,c),
(36,178,ls),
(36,71,o),
(116,-8,o),
(225,-8,cs)
);
},
{
pos = (37,0);
ref = cutdetail.part;
scale = (0.9224,1);
}
);
width = 687;
}
);
metricRight = H;
unicode = 85;
},
{
color = 2;
glyphname = V;
layers = (
{
anchors = (
{
name = bottom;
pos = (300,0);
},
{
name = top;
pos = (330,716);
}
);
layerId = m01;
shapes = (
{
closed = 1;
nodes = (
(564,433,l),
(482,433,o),
(445,469,o),
(486,543,cs),
(509,584,ls),
(532,623,o),
(552,635,o),
(599,635,c),
(599,715,l),
(375,716,l),
(375,631,l),
(418,631,o),
(443,607,o),
(417,565,cs),
(347,451,l),
(276,564,ls),
(252,603,o),
(266,631,o),
(317,631,c),
(317,716,l),
(0,716,l),
(0,636,l),
(10,636,ls),
(58,636,o),
(87,601,o),
(100,571,cs),
(123,519,ls),
(150,458,o),
(87,434,o),
(44,434,c),
(127,0,l),
(476,0,l)
);
}
);
width = 599;
}
);
unicode = 86;
},
{
color = 2;
glyphname = W;
layers = (
{
anchors = (
{
name = bottom;
pos = (442,0);
},
{
name = top;
pos = (471,715);
}
);
layerId = m01;
shapes = (
{
closed = 1;
nodes = (
(854,433,l),
(811,433,o),
(739,462,o),
(777,538,cs),
(799,582,ls),
(814,613,o),
(836,636,o),
(866,636,cs),
(885,636,l),
(885,716,l),
(669,716,l),
(669,631,l),
(717,631,o),
(726,607,o),
(703,564,cs),
(574,335,l),
(731,336,l),
(600,564,ls),
(573,607,o),
(594,631,o),
(626,631,c),
(626,716,l),
(325,716,l),
(325,636,l),
(374,636,o),
(421,614,o),
(444,574,cs),
(468,533,ls),
(496,485,o),
(518,439,o),
(462,439,c),
(503,0,l),
(790,0,l)
);
},
{
closed = 1;
nodes = (
(403,0,l),
(442,439,l),
(384,439,o),
(407,482,o),
(438,543,cs),
(459,584,ls),
(481,623,o),
(491,636,o),
(538,636,c),
(538,716,l),
(325,716,l),
(325,631,l),
(370,631,o),
(378,607,o),
(355,564,cs),
(222,337,l),
(387,335,l),
(253,564,ls),
(229,607,o),
(248,631,o),
(282,631,c),
(282,716,l),
(0,716,l),
(0,636,l),
(20,636,ls),
(58,636,o),
(78,609,o),
(95,572,cs),
(110,538,ls),
(149,451,o),
(77,434,o),
(34,434,c),
(111,0,l)
);
}
);
width = 885;
}
);
metricLeft = V;
metricRight = V;
unicode = 87;
},
{
glyphname = X;
layers = (
{
anchors = (
{
name = bottom;
pos = (347,0);
},
{
name = top;
pos = (357,715);
}
);
background = {
shapes = (
{
closed = 1;
nodes = (
(662,0,l),
(662,434,l),
(643,434,ls),
(629,434,o),
(607,440,o),
(588,451,cs),
(310,614,ls),
(301,619,o),
(301,631,o),
(311,631,cs),
(332,631,l),
(332,716,l),
(31,716,l),
(31,636,l),
(42,636,l),
(64,636,o),
(100,615,o),
(111,608,cs),
(378,452,ls),
(391,444,o),
(385,434,o),
(372,434,cs),
(354,434,l),
(354,0,l)
);
},
{
closed = 1;
nodes = (
(304,0,l),
(304,436,l),
(270,436,ls),
(253,436,o),
(254,450,o),
(267,458,cs),
(380,530,l),
(252,530,l),
(114,447,ls),
(97,437,o),
(69,434,o),
(33,434,c),
(33,0,l)
);
},
{
closed = 1;
nodes = (
(427,540,l),
(565,619,ls),
(583,629,o),
(601,635,o),
(631,636,c),
(645,636,l),
(645,716,l),
(382,716,l),
(382,631,l),
(402,631,ls),
(424,631,o),
(421,615,o),
(407,607,cs),
(286,540,l)
);
}
);
};
layerId = m01;
shapes = (
{
closed = 1;
nodes = (
(294,0,l),
(294,439,l),
(262,439,ls),
(247,439,o),
(248,453,o),
(257,458,cs),
(309,489,l),
(368,459,ls),
(386,450,o),
(379,439,o),
(366,439,cs),
(349,439,l),
(349,0,l),
(666,0,l),
(666,434,l),
(647,434,ls),
(633,434,o),
(611,440,o),
(592,451,cs),
(436,543,l),
(569,619,ls),
(587,629,o),
(605,636,o),
(635,636,cs),
(649,636,l),
(649,716,l),
(392,716,l),
(392,631,l),
(406,631,ls),
(428,631,o),
(425,615,o),
(414,609,cs),
(367,583,l),
(317,612,ls),
(305,619,o),
(305,631,o),
(317,631,cs),
(337,631,l),
(337,716,l),
(27,716,l),
(27,636,l),
(43,636,ls),
(70,636,o),
(96,619,o),
(114,608,cs),
(242,528,l),
(108,447,ls),
(91,437,o),
(65,434,o),
(27,434,c),
(27,0,l)
);
}
);
width = 693;
}
);
unicode = 88;
},
{
color = 2;
glyphname = Y;
layers = (
{
anchors = (
{
name = bottom;
pos = (345,0);
},
{
name = top;
pos = (325,716);
},
{
name = topleft;
pos = (24,716);
}
);
layerId = m01;
shapes = (
{
closed = 1;
nodes = (
(460,0,ls),
(569,0,o),
(649,79,o),
(649,186,cs),
(649,434,l),
(599,434,o),
(582,460,o),
(582,500,cs),
(582,564,ls),
(582,604,o),
(599,636,o),
(649,636,c),
(649,716,l),
(361,716,l),
(361,631,l),
(401,631,o),
(421,610,o),
(421,575,cs),
(421,488,ls),
(421,464,o),
(393,439,o),
(357,439,cs),
(29,439,l),
(29,0,l)
);
},
{
closed = 1;
nodes = (
(474,560,l),
(262,578,l),
(262,613,o),
(278,631,o),
(308,631,c),
(308,716,l),
(29,716,l),
(29,636,l),
(80,636,o),
(98,607,o),
(98,567,cs),
(98,518,l),
(474,486,l)
);
}
);
width = 685;
}
);
metricRight = J;
unicode = 89;
},
{
glyphname = Yhook;
layers = (
{
anchors = (
{
name = bottom;
pos = (345,0);
},
{
name = top;
pos = (325,716);
},
{
name = topleft;
pos = (24,716);
}
);
layerId = m01;
shapes = (
{
closed = 1;
nodes = (
(460,0,ls),
(569,0,o),
(649,79,o),
(649,186,cs),
(649,434,l),
(599,434,o),
(582,460,o),
(582,500,cs),
(582,564,ls),
(582,604,o),
(599,636,o),
(649,636,c),
(649,716,l),
(361,716,l),
(361,631,l),
(401,631,o),
(421,610,o),
(421,575,cs),
(421,488,ls),
(421,464,o),
(393,439,o),
(357,439,cs),
(29,439,l),
(29,0,l)
);
},
{
closed = 1;
nodes = (
(474,560,l),
(262,578,l),
(262,613,o),
(278,631,o),
(308,631,c),
(308,716,l),
(29,716,l),
(29,636,l),
(80,636,o),
(98,607,o),
(98,567,cs),
(98,518,l),
(474,486,l)
);
},
{
closed = 1;
nodes = (
(695,636,o),
(712,592,o),
(712,547,c),
(835,547,l),
(835,638,o),
(776,716,o),
(686,716,cs),
(539,716,l),
(539,636,l),
(648,636,l)
);
}
);
width = 836;
}
);
unicode = 435;
},
{
color = 2;
glyphname = Z;
layers = (
{
anchors = (
{
name = bottom;
pos = (290,0);
},
{
name = center;
pos = (290,358);
},
{
name = ogonek;
pos = (-43,0);
},
{
name = top;
pos = (291,716);
},
{
name = topright;
pos = (547,716);
}
);
layerId = m01;
shapes = (
{
closed = 1;
nodes = (
(561,0,l),
(561,499,l),
(468,499,l),
(468,459,o),
(450,439,o),
(408,439,cs),
(270,439,l),
(561,642,l),
(561,716,l),
(28,716,l),
(28,569,l),
(122,569,l),
(122,609,o),
(139,636,o),
(191,636,cs),
(318,636,l),
(28,434,l),
(27,0,l)
);
}
);
width = 588;
}
);
unicode = 90;
},
{
color = 2;
glyphname = C.ss01;
layers = (
{
anchors = (
{
name = bottom;
pos = (322,0);
},
{
name = top;
pos = (310,716);
}
);
guides = (
{
pos = (-222,802);
}
);
layerId = m01;
shapes = (
{
closed = 1;
nodes = (
(561,0,l),
(561,434,l),
(323,434,ls),
(238,434,o),
(231,465,o),
(231,520,cs),
(231,547,ls),
(231,609,o),
(248,636,o),
(298,636,cs),
(331,636,ls),
(381,636,o),
(398,609,o),
(398,564,c),
(562,564,l),
(562,656,o),
(498,722,o),
(411,722,cs),
(218,722,ls),
(109,722,o),
(29,643,o),
(29,536,cs),
(29,186,ls),
(29,79,o),
(109,0,o),
(218,0,cs)
);
}
);
width = 589;
}
);
metricLeft = O;
},
{
glyphname = G.ss01;
layers = (
{
anchors = (
{
name = bottom;
pos = (328,0);
},
{
name = top;
pos = (328,716);
}
);
layerId = m01;
shapes = (
{
closed = 1;
nodes = (
(307,-8,ls),
(410,-8,o),
(444,48,o),
(444,110,cs),
(444,170,l),
(472,170,l),
(502,0,l),
(587,0,l),
(587,500,l),
(423,500,l),
(423,460,o),
(406,439,o),
(382,439,cs),
(272,439,ls),
(248,439,o),
(231,460,o),
(231,500,cs),
(231,547,ls),
(231,609,o),
(248,636,o),
(298,636,cs),
(356,636,ls),
(406,636,o),
(423,609,o),
(423,564,c),
(587,564,l),
(587,656,o),
(523,722,o),
(436,722,cs),
(218,722,ls),
(109,722,o),
(29,643,o),
(29,536,cs),
(29,178,ls),
(29,71,o),
(109,-8,o),
(218,-8,cs)
);
},
{
pos = (-15,5);
ref = cutdetail.part;
}
);
width = 627;
}
);
},
{
glyphname = J.ss01;
layers = (
{
anchors = (
{
name = bottom;
pos = (327,0);
},
{
name = top;
pos = (327,716);
}
);
layerId = m01;
shapes = (
{
closed = 1;
nodes = (
(395,0,l),
(504,0,o),
(584,79,o),
(584,186,cs),
(584,434,l),
(534,434,o),
(517,460,o),
(517,500,cs),
(517,564,ls),
(517,604,o),
(534,636,o),
(584,636,c),
(584,716,l),
(292,716,l),
(292,636,l),
(342,636,o),
(359,609,o),
(359,569,cs),
(359,500,ls),
(359,460,o),
(342,439,o),
(292,439,cs),
(193,439,l),
(143,439,o),
(126,460,o),
(126,500,cs),
(126,544,l),
(31,544,l),
(31,186,ls),
(31,79,o),
(111,0,o),
(220,0,cs)
);
}
);
width = 620;
}
);
},
{
glyphname = L.ss01;
layers = (
{
layerId = m01;
shapes = (
{
closed = 1;
nodes = (
(537,0,l),
(537,439,l),
(255,439,l),
(255,564,l),
(255,604,o),
(272,636,o),
(322,636,c),
(322,716,l),
(29,716,l),
(29,636,l),
(79,636,o),
(97,604,o),
(97,564,cs),
(97,500,ls),
(97,460,o),
(80,434,o),
(30,434,c),
(29,0,l)
);
}
);
width = 567;
}
);
},
{
glyphname = Q.ss01;
layers = (
{
layerId = m01;
shapes = (
{
closed = 1;
nodes = (
(436,-8,ls),
(545,-8,o),
(625,71,o),
(625,178,cs),
(625,536,ls),
(625,643,o),
(545,722,o),
(436,722,cs),
(218,722,ls),
(109,722,o),
(29,643,o),
(29,536,cs),
(29,178,ls),
(29,71,o),
(109,-8,o),
(218,-8,cs)
);
},
{
closed = 1;
nodes = (
(499,-202,l),
(499,-54,l),
(385,-54,ls),
(350,-54,o),
(326,-42,o),
(326,-8,c),
(326,82,l),
(231,82,l),
(231,-75,l),
(231,-162,o),
(287,-202,o),
(386,-202,c)
);
},
{
closed = 1;
nodes = (
(248,439,o),
(231,460,o),
(231,500,cs),
(231,569,ls),
(231,609,o),
(248,636,o),
(298,636,cs),
(356,636,ls),
(406,636,o),
(423,609,o),
(423,569,cs),
(423,500,ls),
(423,460,o),
(406,439,o),
(382,439,cs),
(272,439,ls)
);
}
);
width = 654;
}
);
},
{
color = 4;
glyphname = R.ss01;
layers = (
{
background = {
shapes = (
{
closed = 0;
nodes = (
(688,434,l),
(570,434,o),
(608,526,o),
(526,526,c)
);
},
{
closed = 0;
nodes = (
(392,564,l),
(273,564,l)
);
},
{
closed = 1;
nodes = (
(273,636,l),
(392,636,ls),
(440,636,o),
(452,616,o),
(452,600,cs),
(452,582,o),
(440,564,o),
(392,564,cs),
(273,564,l)
);
},
{
closed = 1;
nodes = (
(396,74,o),
(471,0,o),
(584,0,cs),
(688,0,l),
(688,434,l),
(570,434,o),
(608,526,o),
(526,526,c),
(526,528,l),
(589,528,o),
(618,575,o),
(618,616,cs),
(618,684,o),
(555,716,o),
(465,716,cs),
(46,716,l),
(46,636,l),
(97,636,o),
(114,611,o),
(114,571,cs),
(114,510,ls),
(114,467,o),
(104,434,o),
(46,434,c),
(46,0,l),
(338,0,l),
(338,434,l),
(293,434,o),
(273,457,o),
(273,501,c),
(330,501,ls),
(375,501,o),
(395,478,o),
(395,434,cs),
(396,185,ls)
);
}
);
};
layerId = m01;
shapes = (
{
closed = 1;
nodes = (
(338,0,l),
(338,434,l),
(309,434,ls),
(290,434,o),
(272,443,o),
(272,462,cs),
(272,476,o),
(283,490,o),
(309,490,cs),
(340,490,ls),
(372,490,o),
(382,469,o),
(382,434,cs),
(383,185,ls),
(383,74,o),
(458,0,o),
(571,0,cs),
(688,0,l),
(688,434,l),
(570,434,o),
(608,526,o),
(526,526,c),
(526,528,l),
(589,528,o),
(618,575,o),
(618,616,cs),
(618,684,o),
(555,716,o),
(465,716,cs),
(46,716,l),
(46,636,l),
(97,636,o),
(114,611,o),
(114,571,cs),
(114,510,ls),
(114,467,o),
(104,434,o),
(46,434,c),
(46,0,l)
);
},
{
closed = 1;
nodes = (
(273,636,l),
(392,636,ls),
(440,636,o),
(452,616,o),
(452,600,cs),
(452,582,o),
(440,564,o),
(392,564,cs),
(273,564,l)
);
}
);
width = 724;
}
);
},
{
glyphname = U.ss01;
lastChange = "2023-12-04 20:50:42 +0000";
layers = (
{
layerId = m01;
shapes = (
{
closed = 1;
nodes = (
(378,-8,ls),
(481,-8,o),
(515,48,o),
(515,110,cs),
(515,170,l),
(543,170,l),
(573,0,l),
(658,0,l),
(658,434,l),
(608,434,o),
(591,460,o),
(591,500,cs),
(591,564,ls),
(591,604,o),
(608,636,o),
(658,636,c),
(658,716,l),
(376,716,l),
(376,631,l),
(427,631,o),
(443,604,o),
(443,564,cs),
(443,495,ls),
(443,455,o),
(426,434,o),
(402,434,cs),
(302,434,ls),
(278,434,o),
(261,455,o),
(261,495,cs),
(261,564,ls),
(261,604,o),
(278,631,o),
(328,631,c),
(328,716,l),
(36,716,l),
(36,636,l),
(86,636,o),
(103,604,o),
(103,564,cs),
(103,500,ls),
(103,460,o),
(86,434,o),
(36,434,c),
(36,178,ls),
(36,71,o),
(116,-8,o),
(225,-8,cs)
);
},
{
pos = (37,0);
ref = cutdetail.part;
scale = (0.9224,1);
}
);
width = 687;
}
);
metricRight = H;
},
{
color = 2;
glyphname = X.ss01;
layers = (
{
anchors = (
{
name = bottom;
pos = (401,0);
},
{
name = top;
pos = (401,716);
}
);
background = {
shapes = (
{
closed = 1;
nodes = (
(415,603,l),
(415,621,o),
(398,631,o),
(370,631,c),
(370,716,l),
(652,716,l),
(652,636,l),
(621,636,o),
(589,613,o),
(563,600,cs),
(283,458,l),
(283,440,o),
(296,434,o),
(322,434,c),
(322,0,l),
(30,0,l),
(30,440,l),
(76,440,o),
(129,455,o),
(168,475,cs)
);
},
{
closed = 1;
nodes = (
(573,455,o),
(616,440,o),
(662,440,c),
(662,0,l),
(370,0,l),
(370,434,l),
(396,434,o),
(409,440,o),
(409,458,c),
(166,594,ls),
(93,636,o),
(92,636,o),
(40,636,c),
(40,716,l),
(322,716,l),
(322,631,l),
(294,631,o),
(287,621,o),
(287,603,c),
(534,475,ls)
);
}
);
};
layerId = m01;
shapes = (
{
closed = 1;
nodes = (
(653,0,l),
(653,434,l),
(638,434,ls),
(621,434,o),
(604,441,o),
(592,447,cs),
(284,610,ls),
(271,618,o),
(273,632,o),
(291,632,c),
(317,632,l),
(317,716,l),
(36,716,l),
(36,636,l),
(52,636,ls),
(71,636,o),
(94,623,o),
(109,615,cs),
(397,463,ls),
(423,450,o),
(411,438,o),
(398,438,cs),
(373,438,l),
(373,0,l)
);
},
{
closed = 1;
nodes = (
(326,0,l),
(326,438,l),
(291,438,ls),
(278,438,o),
(266,449,o),
(292,463,cs),
(579,615,ls),
(594,623,o),
(617,636,o),
(636,636,cs),
(652,636,l),
(652,716,l),
(371,716,l),
(371,632,l),
(397,632,l),
(415,632,o),
(417,617,o),
(404,610,cs),
(97,447,ls),
(85,441,o),
(68,434,o),
(51,434,cs),
(36,434,l),
(36,0,l)
);
}
);
width = 689;
}
);
},
{
color = 0;
export = 0;
glyphname = V.ss01;
layers = (
{
anchors = (
{
name = bottom;
pos = (385,0);
},
{
name = top;
pos = (385,716);
}
);
layerId = m01;
shapes = (
{
closed = 1;
nodes = (
(539,0,l),
(674,359,l),
(636,359,o),
(574,385,o),
(574,501,cs),
(574,555,o),
(619,627,o),
(736,627,c),
(737,716,l),
(438,716,l),
(438,656,l),
(481,656,o),
(514,625,o),
(514,597,cs),
(514,558,o),
(498,533,o),
(478,501,cs),
(428,421,l),
(376,508,ls),
(356,541,o),
(333,576,o),
(333,612,cs),
(333,638,o),
(362,656,o),
(393,656,c),
(393,716,l),
(32,716,l),
(32,650,l),
(79,646,o),
(206,555,o),
(206,456,cs),
(206,408,o),
(188,373,o),
(98,367,c),
(193,0,l)
);
}
);
width = 769;
}
);
},
{
color = 0;
export = 0;
glyphname = Y.ss01;
layers = (
{
backgroundImage = {
imagePath = "../../../../NSIRD_screencaptureui_iWUzN2/Screenshot 2023-11-03 at 8.34.04 PM.png";
};
layerId = m01;
shapes = (
{
closed = 1;
nodes = (
(597,0,l),
(597,440,l),
(469,440,ls),
(429,440,o),
(418,463,o),
(418,488,c),
(472,509,o),
(502,521,o),
(551,568,cs),
(587,602,o),
(600,636,o),
(656,636,c),
(656,716,l),
(380,716,l),
(380,631,l),
(412,631,ls),
(429,631,o),
(440,620,o),
(440,609,cs),
(440,589,o),
(385,557,o),
(308,538,c),
(393,545,l),
(312,565,o),
(267,589,o),
(267,609,cs),
(267,620,o),
(278,631,o),
(295,631,cs),
(327,631,l),
(327,716,l),
(6,716,l),
(6,636,l),
(62,636,o),
(87,602,o),
(118,568,cs),
(163,518,o),
(187,509,o),
(240,488,c),
(240,463,o),
(245,440,o),
(189,440,cs),
(65,440,l),
(65,0,l)
);
}
);
width = 662;
}
);
},
{
color = 0;
export = 0;
glyphname = N.ss02;
layers = (
{
layerId = m01;
shapes = (
{
closed = 1;
nodes = (
(311,0,l),
(311,434,l),
(224,434,o),
(178,459,o),
(178,506,cs),
(178,554,l),
(369,434,l),
(369,0,l),
(617,0,l),
(617,440,l),
(559,440,o),
(550,463,o),
(550,506,cs),
(550,567,ls),
(550,607,o),
(566,636,o),
(617,636,c),
(617,716,l),
(420,716,l),
(420,631,l),
(465,631,o),
(485,615,o),
(485,580,cs),
(485,550,l),
(221,716,l),
(47,716,l),
(46,636,l),
(97,636,o),
(113,607,o),
(113,567,cs),
(113,506,ls),
(113,463,o),
(104,440,o),
(46,440,c),
(46,0,l)
);
},
{
closed = 0;
nodes = (
(369,0,l)
);
}
);
width = 600;
}
);
},
{
color = 0;
export = 0;
glyphname = Y.ss02;
layers = (
{
layerId = m01;
shapes = (
{
closed = 1;
nodes = (
(503,0,ls),
(607,0,o),
(678,74,o),
(678,184,cs),
(678,440,l),
(620,440,o),
(610,463,o),
(610,506,cs),
(610,567,ls),
(610,607,o),
(627,636,o),
(678,636,c),
(678,716,l),
(386,716,l),
(386,631,l),
(430,631,o),
(450,610,o),
(450,575,cs),
(450,519,l),
(495,561,l),
(264,578,l),
(264,616,o),
(286,631,o),
(328,631,c),
(328,716,l),
(36,716,l),
(36,542,l),
(495,502,l),
(450,551,l),
(450,488,ls),
(450,463,o),
(422,440,o),
(386,440,cs),
(36,440,l),
(36,0,l)
);
}
);
width = 714;
}
);
},
{
color = 8;
glyphname = rfishhook;
lastChange = "2023-12-05 14:29:18 +0000";
layers = (
{
layerId = m01;
shapes = (
{
closed = 1;
nodes = (
(321,0,l),
(321,439,l),
(274,439,o),
(254,457,o),
(254,500,cs),
(254,531,ls),
(254,582,o),
(271,595,o),
(320,583,c),
(320,745,l),
(185,745,o),
(96,698,o),
(96,626,cs),
(96,500,ls),
(96,455,o),
(74,434,o),
(29,434,c),
(29,0,l)
);
}
);
width = 350;
}
);
metricLeft = H;
metricRight = H;
unicode = 638;
},
{
glyphname = zero;
lastChange = "2023-11-30 12:14:04 +0000";
layers = (
{
layerId = m01;
shapes = (
{
closed = 1;
nodes = (
(436,-8,ls),
(545,-8,o),
(625,71,o),
(625,178,cs),
(625,536,ls),
(625,643,o),
(545,722,o),
(436,722,cs),
(218,722,ls),
(109,722,o),
(29,643,o),
(29,536,cs),
(29,178,ls),
(29,71,o),
(109,-8,o),
(218,-8,cs)
);
},
{
closed = 1;
nodes = (
(248,439,o),
(231,460,o),
(231,500,cs),
(231,569,ls),
(231,609,o),
(248,636,o),
(298,636,cs),
(356,636,ls),
(406,636,o),
(423,609,o),
(423,569,cs),
(423,500,ls),
(423,460,o),
(406,439,o),
(382,439,cs),
(272,439,ls)
);
},
{
closed = 1;
nodes = (
(374,351,o),
(410,387,o),
(410,432,cs),
(410,477,o),
(374,513,o),
(330,513,cs),
(285,513,o),
(250,477,o),
(250,432,cs),
(250,387,o),
(285,351,o),
(330,351,cs)
);
}
);
width = 660;
}
);
unicode = 48;
},
{
glyphname = one;
lastChange = "2023-11-30 13:11:33 +0000";
layers = (
{
anchors = (
{
name = bottom;
pos = (276,0);
},
{
name = ogonek;
pos = (433,0);
},
{
name = top;
pos = (276,716);
},
{
name = topleft;
pos = (90,716);
}
);
layerId = m01;
shapes = (
{
closed = 1;
nodes = (
(175,495,ls),
(175,455,o),
(158,434,o),
(108,434,cs),
(39,434,l),
(39,0,l),
(489,0,l),
(489,434,l),
(420,434,ls),
(370,434,o),
(353,460,o),
(353,495,cs),
(352,716,l),
(175,715,l),
(175,679,o),
(131,631,o),
(74,631,c),
(74,561,l),
(175,561,l)
);
}
);
width = 528;
}
);
unicode = 49;
},
{
glyphname = two;
lastChange = "2023-11-30 13:11:55 +0000";
layers = (
{
layerId = m01;
shapes = (
{
closed = 1;
nodes = (
(583,0,l),
(583,439,l),
(274,439,ls),
(236,439,o),
(226,450,o),
(226,464,cs),
(226,483,o),
(245,489,o),
(274,490,cs),
(461,498,ls),
(504,500,o),
(572,531,o),
(572,612,cs),
(572,699,o),
(491,716,o),
(424,716,cs),
(201,716,ls),
(114,716,o),
(50,664,o),
(50,591,c),
(234,591,l),
(234,615,o),
(251,636,o),
(301,636,cs),
(326,636,ls),
(373,636,o),
(388,624,o),
(388,602,cs),
(388,583,o),
(375,565,o),
(331,563,cs),
(285,561,ls),
(118,554,o),
(28,514,o),
(28,356,cs),
(28,0,l)
);
}
);
width = 613;
}
);
unicode = 50;
},
{
glyphname = three;
lastChange = "2023-11-30 13:12:36 +0000";
layers = (
{
layerId = m01;
shapes = (
{
closed = 1;
nodes = (
(421,-6,l),
(530,-6,o),
(610,73,o),
(610,180,cs),
(610,375,ls),
(610,518,o),
(521,540,o),
(452,540,c),
(452,543,l),
(470,543,ls),
(507,543,o),
(569,555,o),
(569,624,cs),
(569,699,o),
(488,716,o),
(421,716,cs),
(196,716,ls),
(109,716,o),
(45,664,o),
(45,591,cs),
(45,565,l),
(229,565,l),
(229,591,ls),
(229,615,o),
(246,636,o),
(285,636,cs),
(338,636,ls),
(370,636,o),
(385,623,o),
(385,606,cs),
(385,588,o),
(370,575,o),
(338,575,cs),
(288,575,l),
(288,505,l),
(363,505,ls),
(396,505,o),
(411,495,o),
(411,474,cs),
(411,454,o),
(396,439,o),
(363,439,cs),
(250,439,ls),
(226,439,o),
(209,462,o),
(209,497,c),
(25,497,l),
(25,180,ls),
(25,73,o),
(105,-6,o),
(214,-6,cs)
);
}
);
width = 630;
}
);
unicode = 51;
},
{
color = 4;
glyphname = four;
lastChange = "2023-11-30 13:13:01 +0000";
layers = (
{
layerId = m01;
shapes = (
{
closed = 1;
nodes = (
(581,-1,l),
(581,434,l),
(524,434,ls),
(496,434,o),
(486,455,o),
(486,475,cs),
(486,505,l),
(555,505,l),
(555,575,l),
(485,575,l),
(485,716,l),
(272,716,l),
(49,574,l),
(49,505,l),
(301,505,l),
(301,474,ls),
(301,454,o),
(291,434,o),
(263,434,cs),
(31,434,l),
(31,-3,l)
);
},
{
closed = 1;
nodes = (
(180,575,l),
(301,647,l),
(301,575,l)
);
}
);
width = 608;
}
);
unicode = 52;
},
{
color = 4;
glyphname = five;
lastChange = "2023-11-30 13:14:26 +0000";
layers = (
{
layerId = m01;
shapes = (
{
closed = 1;
nodes = (
(546,626,l),
(546,716,l),
(28,716,l),
(28,505,l),
(345,505,ls),
(375,505,o),
(393,493,o),
(393,474,cs),
(393,444,o),
(368,439,o),
(346,439,cs),
(244,439,ls),
(220,439,o),
(216,454,o),
(216,470,c),
(28,470,l),
(27,179,ls),
(27,72,o),
(107,-7,o),
(216,-8,cs),
(402,-8,ls),
(510,-9,o),
(591,71,o),
(591,178,cs),
(592,410,ls),
(592,518,o),
(537,575,o),
(434,575,cs),
(216,575,l),
(216,626,l)
);
}
);
width = 615;
}
);
unicode = 53;
},
{
color = 4;
glyphname = six;
lastChange = "2023-11-30 13:14:44 +0000";
layers = (
{
layerId = m01;
shapes = (
{
closed = 1;
nodes = (
(228,439,o),
(211,451,o),
(211,470,cs),
(211,501,l),
(342,501,ls),
(371,500,o),
(389,487,o),
(389,468,cs),
(389,449,o),
(372,439,o),
(342,439,cs),
(258,439,ls)
);
},
{
closed = 1;
nodes = (
(619,486,o),
(539,565,o),
(430,565,cs),
(211,565,l),
(211,589,ls),
(211,624,o),
(246,636,o),
(273,636,cs),
(319,636,ls),
(369,636,o),
(386,615,o),
(386,591,c),
(570,591,l),
(570,664,o),
(505,716,o),
(419,716,cs),
(186,716,ls),
(83,716,o),
(28,659,o),
(28,551,cs),
(28,181,ls),
(28,74,o),
(107,-4,o),
(216,-5,cs),
(430,-6,ls),
(539,-7,o),
(619,73,o),
(619,180,cs),
(619,379,ls)
);
}
);
width = 638;
}
);
unicode = 54;
},
{
color = 4;
glyphname = seven;
lastChange = "2023-11-30 11:48:23 +0000";
layers = (
{
layerId = m01;
shapes = (
{
closed = 1;
nodes = (
(534,-1,l),
(26,0,l),
(27,434,l),
(101,434,ls),
(135,434,o),
(148,451,o),
(159,462,cs),
(318,636,l),
(190,636,ls),
(138,636,o),
(121,609,o),
(121,569,c),
(27,569,l),
(27,716,l),
(534,714,l),
(534,636,l),
(379,470,ls),
(364,454,o),
(364,434,o),
(392,434,cs),
(534,434,l)
);
}
);
width = 560;
}
);
unicode = 55;
},
{
glyphname = eight;
lastChange = "2023-11-30 13:15:16 +0000";
layers = (
{
layerId = m01;
shapes = (
{
closed = 1;
nodes = (
(189,716,ls),
(95,716,o),
(51,689,o),
(51,631,cs),
(51,578,o),
(86,543,o),
(140,543,cs),
(178,543,l),
(178,540,l),
(75,540,o),
(20,483,o),
(20,375,cs),
(20,179,ls),
(20,72,o),
(100,-7,o),
(209,-7,cs),
(431,-8,ls),
(540,-8,o),
(620,71,o),
(620,178,cs),
(620,374,ls),
(620,482,o),
(565,539,o),
(462,539,c),
(462,542,l),
(500,542,ls),
(554,542,o),
(589,577,o),
(589,629,cs),
(589,687,o),
(545,715,o),
(451,715,cs)
);
},
{
closed = 1;
nodes = (
(219,492,o),
(236,505,o),
(266,505,cs),
(374,504,ls),
(404,504,o),
(421,494,o),
(421,470,cs),
(421,453,o),
(406,439,o),
(374,439,cs),
(266,440,ls),
(237,440,o),
(219,449,o),
(219,472,cs)
);
},
{
closed = 1;
nodes = (
(245,625,o),
(262,636,o),
(292,636,cs),
(348,636,ls),
(378,636,o),
(395,625,o),
(395,606,cs),
(395,587,o),
(377,575,o),
(348,575,cs),
(292,575,ls),
(263,575,o),
(245,587,o),
(245,606,cs)
);
}
);
width = 640;
}
);
unicode = 56;
},
{
glyphname = nine;
lastChange = "2023-11-30 13:15:35 +0000";
layers = (
{
background = {
shapes = (
{
closed = 1;
nodes = (
(-11,520,o),
(36,501,o),
(90,501,cs),
(382,501,l),
(382,484,ls),
(382,455,o),
(382,434,o),
(348,434,cs),
(237,434,l),
(216,434,o),
(206,440,o),
(206,462,cs),
(206,479,l),
(-1,478,l),
(-1,116,ls),
(-1,51,o),
(74,-7,o),
(145,-7,cs),
(469,-6,ls),
(559,-6,o),
(589,61,o),
(589,148,cs),
(589,561,ls),
(589,643,o),
(537,716,o),
(449,716,cs),
(165,716,ls),
(55,716,o),
(-11,698,o),
(-11,593,cs)
);
},
{
closed = 1;
nodes = (
(344,631,ls),
(372,631,o),
(382,618,o),
(382,598,cs),
(382,574,o),
(368,564,o),
(331,564,cs),
(258,564,ls),
(221,564,o),
(207,574,o),
(207,598,cs),
(207,618,o),
(217,631,o),
(245,631,cs)
);
}
);
};
layerId = m01;
shapes = (
{
closed = 1;
nodes = (
(240,575,o),
(222,587,o),
(222,606,cs),
(222,625,o),
(239,636,o),
(269,636,cs),
(343,636,ls),
(373,636,o),
(389,624,o),
(389,605,c),
(389,575,l),
(269,575,ls)
);
},
{
closed = 1;
nodes = (
(399,-7,ls),
(507,-8,o),
(588,72,o),
(588,179,cs),
(589,550,ls),
(589,658,o),
(534,715,o),
(431,715,cs),
(166,715,ls),
(72,715,o),
(28,684,o),
(28,613,cs),
(28,548,o),
(55,505,o),
(164,505,cs),
(389,505,l),
(390,472,l),
(389,450,o),
(373,439,o),
(343,439,cs),
(241,439,ls),
(217,439,o),
(213,459,o),
(213,470,c),
(25,470,l),
(24,180,ls),
(24,73,o),
(104,-6,o),
(213,-6,cs)
);
}
);
width = 616;
}
);
unicode = 57;
},
{
glyphname = zero.osf;
lastChange = "2023-11-30 12:43:39 +0000";
layers = (
{
layerId = m01;
shapes = (
{
closed = 1;
nodes = (
(436,-8,ls),
(545,-8,o),
(625,71,o),
(625,178,cs),
(625,536,ls),
(625,643,o),
(545,722,o),
(436,722,cs),
(218,722,ls),
(109,722,o),
(29,643,o),
(29,536,cs),
(29,178,ls),
(29,71,o),
(109,-8,o),
(218,-8,cs)
);
},
{
closed = 1;
nodes = (
(248,439,o),
(231,460,o),
(231,500,cs),
(231,569,ls),
(231,609,o),
(248,636,o),
(298,636,cs),
(356,636,ls),
(406,636,o),
(423,609,o),
(423,569,cs),
(423,500,ls),
(423,460,o),
(406,439,o),
(382,439,cs),
(272,439,ls)
);
},
{
closed = 1;
nodes = (
(374,351,o),
(410,387,o),
(410,432,cs),
(410,477,o),
(374,513,o),
(330,513,cs),
(285,513,o),
(250,477,o),
(250,432,cs),
(250,387,o),
(285,351,o),
(330,351,cs)
);
}
);
width = 660;
}
);
},
{
glyphname = two.ss01;
lastChange = "2023-11-29 13:50:08 +0000";
layers = (
{
layerId = m01;
shapes = (
{
closed = 1;
nodes = (
(605,0,l),
(605,440,l),
(266,439,l),
(518,544,ls),
(550,557,o),
(585,586,o),
(585,615,cs),
(585,699,o),
(504,716,o),
(437,716,cs),
(202,716,ls),
(115,716,o),
(51,664,o),
(51,591,cs),
(51,565,l),
(235,565,l),
(235,591,ls),
(235,615,o),
(252,636,o),
(302,636,cs),
(339,636,ls),
(386,636,o),
(401,624,o),
(401,607,cs),
(401,596,o),
(394,585,o),
(359,571,cs),
(40,440,l),
(40,0,l)
);
}
);
width = 646;
}
);
},
{
export = 0;
glyphname = zero.ss01;
lastChange = "2023-11-21 20:06:39 +0000";
layers = (
{
layerId = m01;
shapes = (
{
closed = 1;
nodes = (
(510,0,ls),
(600,0,o),
(621,67,o),
(622,154,cs),
(627,546,ls),
(628,630,o),
(578,716,o),
(490,716,cs),
(207,716,ls),
(98,716,o),
(32,670,o),
(32,559,cs),
(32,123,ls),
(30,58,o),
(107,0,o),
(178,0,cs)
);
},
{
closed = 1;
nodes = (
(272,432,o),
(249,445,o),
(251,485,cs),
(256,584,ls),
(257,605,o),
(259,626,o),
(287,626,cs),
(380,626,ls),
(404,626,o),
(417,612,o),
(419,572,cs),
(423,471,ls),
(424,452,o),
(402,433,o),
(379,433,cs),
(300,432,ls)
);
},
{
closed = 1;
nodes = (
(380,351,o),
(416,387,o),
(416,432,cs),
(416,477,o),
(380,513,o),
(336,513,cs),
(291,513,o),
(256,477,o),
(256,432,cs),
(256,387,o),
(291,351,o),
(336,351,cs)
);
}
);
width = 659;
}
);
},
{
export = 0;
glyphname = one.ss01;
lastChange = "2023-11-21 20:06:39 +0000";
layers = (
{
layerId = m01;
shapes = (
{
closed = 1;
nodes = (
(471,0,l),
(471,412,l),
(383,412,l),
(383,716,l),
(158,716,l),
(158,646,o),
(77,544,o),
(26,544,c),
(158,544,l),
(158,412,l),
(32,412,l),
(32,0,l)
);
}
);
width = 503;
}
);
},
{
export = 0;
glyphname = four.ss01;
lastChange = "2023-11-27 14:11:22 +0000";
layers = (
{
layerId = m01;
shapes = (
{
closed = 1;
nodes = (
(614,0,l),
(614,412,l),
(519,412,ls),
(474,412,o),
(472,429,o),
(472,447,cs),
(472,468,o),
(491,484,o),
(519,484,cs),
(667,484,l),
(667,593,l),
(523,593,l),
(523,716,l),
(198,716,l),
(198,593,o),
(149,593,o),
(34,593,c),
(32,484,l),
(254,484,ls),
(292,484,o),
(312,472,o),
(312,447,cs),
(312,428,o),
(282,412,o),
(254,412,cs),
(124,412,l),
(124,0,l)
);
},
{
closed = 1;
nodes = (
(370,652,l),
(370,593,l),
(307,593,l)
);
}
);
width = 699;
}
);
},
{
export = 0;
glyphname = four.ss02;
lastChange = "2023-11-21 20:06:39 +0000";
layers = (
{
background = {
shapes = (
{
closed = 1;
nodes = (
(574,0,l),
(574,217,l),
(533,217,ls),
(488,217,o),
(486,239,o),
(486,263,cs),
(486,291,o),
(505,313,o),
(533,313,cs),
(681,313,l),
(681,465,l),
(537,465,l),
(537,716,l),
(212,716,l),
(212,570,o),
(163,480,o),
(48,423,c),
(46,313,l),
(268,313,ls),
(306,313,o),
(326,297,o),
(326,263,cs),
(326,238,o),
(296,217,o),
(268,217,cs),
(217,217,l),
(217,0,l)
);
},
{
closed = 1;
nodes = (
(384,616,l),
(384,465,l),
(286,465,l)
);
}
);
};
layerId = m01;
shapes = (
{
closed = 1;
nodes = (
(581,0,l),
(581,440,l),
(529,440,ls),
(496,440,o),
(474,445,o),
(474,467,cs),
(474,490,o),
(491,495,o),
(529,495,cs),
(655,495,l),
(655,583,l),
(474,583,l),
(474,716,l),
(247,716,l),
(247,634,o),
(178,583,o),
(64,583,c),
(62,495,l),
(182,495,ls),
(219,495,o),
(236,490,o),
(236,467,cs),
(236,445,o),
(213,440,o),
(180,440,cs),
(128,440,l),
(128,0,l)
);
},
{
closed = 1;
nodes = (
(356,672,l),
(356,583,l),
(250,583,l)
);
}
);
width = 677;
}
);
},
{
color = 8;
glyphname = period;
lastChange = "2023-11-30 15:47:59 +0000";
layers = (
{
background = {
shapes = (
{
closed = 1;
nodes = (
(186,0,o),
(245,62,o),
(245,121,cs),
(245,184,o),
(188,242,o),
(125,242,cs),
(57,242,o),
(3,188,o),
(3,121,cs),
(3,51,o),
(54,0,o),
(124,0,c)
);
}
);
};
layerId = m01;
shapes = (
{
closed = 1;
nodes = (
(14,154,o),
(14,77,o),
(14,0,c),
(89,0,o),
(165,0,o),
(240,0,c),
(240,77,o),
(240,154,o),
(240,231,c),
(167,231,o),
(91,231,o),
(14,231,c)
);
}
);
width = 248;
}
);
unicode = 46;
},
{
color = 8;
glyphname = comma;
lastChange = "2023-11-30 15:45:29 +0000";
layers = (
{
layerId = m01;
shapes = (
{
closed = 1;
nodes = (
(10,0,l),
(110,0,l),
(110,-55,o),
(70,-115,o),
(14,-162,c),
(193,-124,o),
(306,-30,o),
(306,80,cs),
(306,169,o),
(239,235,o),
(150,235,cs),
(10,235,l)
);
}
);
width = 316;
}
);
unicode = 44;
},
{
color = 8;
glyphname = exclam;
lastChange = "2023-11-30 15:41:01 +0000";
layers = (
{
layerId = m01;
shapes = (
{
pos = (28,0);
ref = period;
},
{
closed = 1;
nodes = (
(35,732,l),
(272,728,l),
(232,283,l),
(76,283,l)
);
}
);
width = 302;
}
);
unicode = 33;
},
{
color = 8;
glyphname = question;
lastChange = "2023-11-30 15:51:47 +0000";
layers = (
{
layerId = m01;
shapes = (
{
closed = 1;
nodes = (
(112,538,l),
(113,590,l),
(113,611,o),
(161,624,o),
(242,624,c),
(267,624,o),
(284,605,o),
(284,575,c),
(285,505,l),
(285,471,o),
(269,451,o),
(235,444,cs),
(155,428,o),
(129,407,o),
(129,358,c),
(125,260,l),
(287,262,l),
(285,321,l),
(245,321,o),
(281,348,o),
(363,379,cs),
(430,404,o),
(470,464,o),
(470,539,cs),
(470,660,o),
(421,720,o),
(321,720,c),
(138,720,o),
(24,679,o),
(24,614,c),
(24,531,l)
);
},
{
pos = (78,0);
ref = period;
}
);
width = 494;
}
);
unicode = 63;
},
{
color = 8;
glyphname = bullet;
lastChange = "2023-12-04 20:50:42 +0000";
layers = (
{
layerId = m01;
shapes = (
{
closed = 1;
nodes = (
(230,346,o),
(333,402,o),
(333,507,cs),
(333,588,o),
(260,666,o),
(175,666,cs),
(87,666,o),
(14,593,o),
(14,507,cs),
(14,419,o),
(74,346,o),
(174,346,c)
);
}
);
width = 341;
}
);
metricLeft = period;
metricRight = period;
unicode = 8226;
},
{
color = 8;
glyphname = asterisk;
layers = (
{
background = {
shapes = (
{
closed = 1;
nodes = (
(219,565,l),
(219,641,l),
(276,578,l),
(333,595,l),
(242,683,l),
(342,685,l),
(342,732,l),
(248,732,l),
(337,819,l),
(280,844,l),
(219,779,l),
(219,868,l),
(159,867,l),
(159,763,l),
(92,840,l),
(30,810,l),
(115,733,l),
(30,734,l),
(23,680,l),
(108,680,l),
(24,602,l),
(71,576,l),
(159,659,l),
(159,563,l)
);
}
);
};
layerId = m01;
shapes = (
{
closed = 1;
nodes = (
(234,565,l),
(224,625,l),
(265,572,l),
(338,616,l),
(290,670,l),
(349,670,l),
(349,747,l),
(279,747,l),
(348,804,l),
(281,854,l),
(225,796,l),
(234,868,l),
(144,867,l),
(154,783,l),
(99,849,l),
(31,801,l),
(88,749,l),
(30,749,l),
(23,665,l),
(78,665,l),
(16,619,l),
(92,567,l),
(154,640,l),
(144,563,l)
);
}
);
width = 372;
}
);
unicode = 42;
},
{
color = 8;
glyphname = numbersign;
layers = (
{
layerId = m01;
shapes = (
{
closed = 1;
nodes = (
(451,-32,l),
(691,762,l),
(528,762,l),
(301,-32,l)
);
},
{
closed = 1;
nodes = (
(179,-32,l),
(419,762,l),
(266,762,l),
(39,-32,l)
);
},
{
closed = 1;
nodes = (
(684,447,l),
(729,581,l),
(115,581,l),
(70,447,l)
);
},
{
closed = 1;
nodes = (
(617,199,l),
(661,333,l),
(44,333,l),
(0,199,l)
);
}
);
width = 700;
}
);
unicode = 35;
},
{
color = 8;
glyphname = slash;
layers = (
{
layerId = m01;
shapes = (
{
closed = 1;
nodes = (
(359,762,l),
(512,762,l),
(202,-32,l),
(62,-32,l)
);
}
);
width = 522;
}
);
unicode = 47;
},
{
color = 8;
glyphname = comma.ss01;
layers = (
{
layerId = m01;
shapes = (
{
closed = 1;
nodes = (
(77,-65,o),
(110,-27,o),
(110,0,c),
(56,9,o),
(24,47,o),
(24,103,cs),
(24,156,o),
(70,200,o),
(125,200,cs),
(175,200,o),
(224,156,o),
(224,103,cs),
(224,43,o),
(209,8,o),
(178,-23,cs),
(150,-51,o),
(110,-77,o),
(24,-99,c)
);
}
);
width = 284;
}
);
},
{
glyphname = colon.ss01;
lastChange = "2023-11-30 15:43:11 +0000";
layers = (
{
layerId = m01;
shapes = (
{
closed = 1;
nodes = (
(194,380,o),
(238,431,o),
(238,501,cs),
(238,568,o),
(191,622,o),
(123,622,cs),
(45,622,o),
(3,554,o),
(3,482,cs),
(3,423,o),
(62,380,o),
(124,380,c)
);
},
{
pos = (0,106);
ref = period;
}
);
width = 252;
}
);
},
{
color = 8;
glyphname = hyphen;
layers = (
{
layerId = m01;
shapes = (
{
closed = 1;
nodes = (
(24,489,l),
(245,489,l),
(245,589,l),
(24,589,l)
);
}
);
width = 269;
}
);
unicode = 45;
},
{
color = 8;
glyphname = endash;
layers = (
{
layerId = m01;
shapes = (
{
closed = 1;
nodes = (
(24,489,l),
(342,489,l),
(342,589,l),
(24,589,l)
);
}
);
width = 366;
}
);
metricLeft = hyphen;
metricRight = hyphen;
unicode = 8211;
},
{
color = 8;
glyphname = emdash;
layers = (
{
layerId = m01;
shapes = (
{
closed = 1;
nodes = (
(24,489,l),
(694,489,l),
(694,589,l),
(24,589,l)
);
}
);
width = 718;
}
);
metricLeft = hyphen;
metricRight = hyphen;
unicode = 8212;
},
{
color = 8;
glyphname = underscore;
layers = (
{
layerId = m01;
shapes = (
{
closed = 1;
nodes = (
(24,-40,l),
(534,-40,l),
(534,30,l),
(24,30,l)
);
}
);
width = 558;
}
);
metricLeft = hyphen;
metricRight = hyphen;
unicode = 95;
},
{
color = 8;
glyphname = parenleft;
layers = (
{
layerId = m01;
shapes = (
{
closed = 1;
nodes = (
(425,-42,l),
(309,-42,o),
(204,153,o),
(204,368,cs),
(204,561,o),
(288,766,o),
(414,766,c),
(414,832,l),
(195,832,o),
(54,650,o),
(54,368,cs),
(54,66,o),
(200,-130,o),
(425,-130,c)
);
}
);
width = 411;
}
);
unicode = 40;
},
{
color = 8;
glyphname = braceright;
layers = (
{
layerId = m01;
shapes = (
{
closed = 1;
nodes = (
(198,313,o),
(159,231,o),
(159,179,cs),
(159,69,o),
(101,-34,o),
(38,-34,cs),
(12,-34,o),
(-25,-26,o),
(-40,-17,c),
(-40,-117,l),
(-13,-124,o),
(33,-130,o),
(66,-130,cs),
(194,-130,o),
(283,-54,o),
(292,63,cs),
(301,187,o),
(345,298,o),
(409,358,c),
(345,418,o),
(301,529,o),
(292,653,cs),
(283,770,o),
(194,846,o),
(66,846,cs),
(33,846,o),
(-13,840,o),
(-40,833,c),
(-40,733,l),
(-25,742,o),
(12,750,o),
(38,750,cs),
(101,750,o),
(159,647,o),
(159,537,cs),
(159,485,o),
(198,403,o),
(244,358,c)
);
}
);
width = 448;
}
);
unicode = 125;
},
{
color = 10;
glyphname = bracketleft;
layers = (
{
layerId = m01;
shapes = (
{
closed = 1;
nodes = (
(381,68,l),
(263,71,l),
(263,41,o),
(255,14,o),
(234,15,cs),
(170,20,l),
(172,735,l),
(227,730,ls),
(249,729,o),
(265,710,o),
(265,677,c),
(380,675,l),
(376,820,l),
(27,816,l),
(24,-76,l),
(384,-77,l)
);
}
);
width = 408;
}
);
unicode = 91;
},
{
color = 10;
glyphname = quoteright;
layers = (
{
background = {
shapes = (
{
closed = 1;
nodes = (
(79,591,l),
(94,626,o),
(89,647,o),
(61,666,cs),
(33,686,o),
(21,714,o),
(27,746,cs),
(36,792,o),
(65,813,o),
(137,825,cs),
(175,831,o),
(212,794,o),
(220,742,cs),
(228,696,o),
(202,635,o),
(155,588,cs),
(124,556,o),
(68,514,o),
(24,487,c)
);
}
);
};
layerId = m01;
shapes = (
{
closed = 1;
nodes = (
(79,591,l),
(84,605,o),
(87,616,o),
(87,624,cs),
(87,641,o),
(79,654,o),
(61,666,cs),
(37,683,o),
(25,706,o),
(25,730,cs),
(25,800,o),
(85,825,o),
(137,825,cs),
(184,825,o),
(221,796,o),
(221,725,cs),
(221,681,o),
(195,628,o),
(155,588,cs),
(126,558,o),
(72,516,o),
(24,487,c)
);
}
);
width = 245;
}
);
unicode = 8217;
},
{
color = 10;
glyphname = guilsinglleft;
layers = (
{
layerId = m01;
shapes = (
{
closed = 1;
nodes = (
(326,233,l),
(156,424,l),
(326,615,l),
(214,615,l),
(24,424,l),
(214,233,l)
);
}
);
width = 350;
}
);
unicode = 8249;
},
{
color = 10;
glyphname = quotedbl;
layers = (
{
layerId = m01;
shapes = (
{
closed = 1;
nodes = (
(24,827,l),
(148,827,l),
(116,541,l),
(40,541,l)
);
},
{
closed = 1;
nodes = (
(196,827,l),
(320,827,l),
(282,544,l),
(212,541,l)
);
}
);
width = 344;
}
);
unicode = 34;
},
{
glyphname = hook.part;
layers = (
{
anchors = (
{
name = _hookjoin;
pos = (206,636);
}
);
layerId = m01;
shapes = (
{
closed = 1;
nodes = (
(306,636,l),
(306,716,l),
(159,716,ls),
(69,716,o),
(10,638,o),
(10,547,c),
(133,547,l),
(133,592,o),
(150,636,o),
(197,636,c)
);
}
);
width = 316;
}
);
},
{
color = 0;
glyphname = asciitilde;
layers = (
{
background = {
shapes = (
{
closed = 1;
nodes = (
(384,240,o),
(405,247,o),
(430,271,cs),
(453,292,o),
(463,318,o),
(468,371,c),
(381,371,l),
(373,339,o),
(361,323,o),
(335,323,cs),
(316,323,o),
(288,328,o),
(260,349,cs),
(232,370,o),
(153,368,o),
(115,368,cs),
(81,368,o),
(53,358,o),
(36,340,cs),
(19,321,o),
(10,289,o),
(10,251,c),
(89,249,l),
(94,269,o),
(111,283,o),
(129,283,cs),
(153,283,o),
(236,281,o),
(277,255,cs),
(293,245,o),
(315,240,o),
(348,240,cs)
);
}
);
};
layerId = m01;
shapes = (
{
closed = 1;
nodes = (
(91,240,l),
(99,273,o),
(119,290,o),
(153,290,cs),
(212,290,o),
(260,243,o),
(343,243,cs),
(420,243,o),
(460,303,o),
(468,370,c),
(390,370,l),
(383,343,o),
(373,322,o),
(335,322,cs),
(277,322,o),
(212,366,o),
(146,366,cs),
(49,366,o),
(22,307,o),
(10,243,c)
);
}
);
width = 478;
}
);
unicode = 126;
},
{
color = 0;
glyphname = dieresiscomb;
layers = (
{
anchors = (
{
name = _top;
pos = (129,729);
},
{
name = top;
pos = (132,865);
}
);
layerId = m01;
shapes = (
{
closed = 1;
nodes = (
(240,758,o),
(266,786,o),
(266,818,cs),
(266,851,o),
(244,879,o),
(206,879,cs),
(184,879,o),
(145,858,o),
(145,818,cs),
(145,788,o),
(173,758,o),
(205,758,cs)
);
},
{
closed = 1;
nodes = (
(84,758,o),
(123,779,o),
(123,819,cs),
(123,849,o),
(95,879,o),
(63,879,cs),
(28,879,o),
(2,851,o),
(2,819,cs),
(2,786,o),
(24,758,o),
(62,758,cs)
);
}
);
width = 268;
}
);
unicode = 776;
},
{
color = 0;
glyphname = dotaccentcomb;
layers = (
{
anchors = (
{
name = _top;
pos = (59,722);
},
{
name = top;
pos = (59,856);
}
);
layerId = m01;
shapes = (
{
closed = 1;
nodes = (
(84,751,o),
(123,772,o),
(123,812,cs),
(123,842,o),
(95,872,o),
(63,872,cs),
(28,872,o),
(2,844,o),
(2,812,cs),
(2,779,o),
(24,751,o),
(62,751,cs)
);
}
);
width = 124;
}
);
unicode = 775;
},
{
color = 0;
glyphname = gravecomb;
layers = (
{
anchors = (
{
name = _top;
pos = (160,716);
},
{
name = top;
pos = (124,851);
}
);
layerId = m01;
shapes = (
{
closed = 1;
nodes = (
(213,754,l),
(140,868,l),
(10,870,l),
(114,754,l)
);
}
);
width = 223;
}
);
unicode = 768;
},
{
color = 0;
glyphname = acutecomb;
layers = (
{
anchors = (
{
name = _top;
pos = (59,716);
},
{
name = top;
pos = (66,863);
}
);
layerId = m01;
shapes = (
{
closed = 1;
nodes = (
(212,867,l),
(86,869,l),
(10,752,l),
(105,753,l)
);
}
);
width = 222;
}
);
unicode = 769;
},
{
color = 2;
glyphname = acutecomb_macroncomb;
layers = (
{
anchors = (
{
name = _top;
pos = (221,900);
},
{
name = top;
pos = (221,0);
}
);
layerId = m01;
shapes = (
{
pos = (375,59);
ref = macroncomb;
scale = (-1,1);
},
{
closed = 1;
nodes = (
(197,784,l),
(76,783,l),
(10,650,l),
(103,650,l)
);
}
);
width = 370;
}
);
},
{
color = 0;
glyphname = hungarumlautcomb;
layers = (
{
anchors = (
{
name = _top;
pos = (126,612);
},
{
name = top;
pos = (10,0);
}
);
layerId = m01;
shapes = (
{
closed = 1;
nodes = (
(183,765,l),
(70,767,l),
(10,649,l),
(96,649,l)
);
},
{
closed = 1;
nodes = (
(320,769,l),
(202,768,l),
(155,649,l),
(233,649,l)
);
}
);
width = 330;
}
);
unicode = 779;
},
{
color = 0;
glyphname = caroncomb.alt;
layers = (
{
anchors = (
{
name = _topright;
pos = (150,716);
}
);
layerId = m01;
shapes = (
{
closed = 1;
nodes = (
(196,760,l),
(229,870,l),
(155,867,l),
(132,760,l)
);
}
);
width = 300;
}
);
},
{
color = 0;
glyphname = circumflexcomb;
layers = (
{
anchors = (
{
name = _top;
pos = (150,720);
},
{
name = top;
pos = (148,881);
}
);
layerId = m01;
shapes = (
{
closed = 1;
nodes = (
(10,757,l),
(92,757,l),
(148,820,l),
(212,753,l),
(292,753,l),
(214,884,l),
(84,884,l)
);
}
);
width = 302;
}
);
unicode = 770;
},
{
color = 0;
glyphname = caroncomb;
layers = (
{
anchors = (
{
name = _top;
pos = (145,711);
},
{
name = top;
pos = (142,858);
}
);
layerId = m01;
shapes = (
{
closed = 1;
nodes = (
(210,753,l),
(281,882,l),
(203,882,l),
(145,811,l),
(90,878,l),
(10,878,l),
(77,753,l)
);
}
);
width = 291;
}
);
unicode = 780;
},
{
color = 0;
glyphname = brevecomb;
layers = (
{
anchors = (
{
name = _top;
pos = (143,716);
}
);
layerId = m01;
shapes = (
{
closed = 1;
nodes = (
(30,872,l),
(30,832,o),
(45,805,o),
(57,788,cs),
(76,759,o),
(113,745,o),
(153,745,cs),
(187,745,o),
(227,761,o),
(252,794,cs),
(266,814,o),
(270,823,o),
(272,871,c),
(199,871,l),
(196,854,o),
(196,843,o),
(187,833,cs),
(179,823,o),
(166,815,o),
(150,815,cs),
(129,815,o),
(111,837,o),
(106,863,cs),
(104,873,l)
);
}
);
width = 302;
}
);
unicode = 774;
},
{
color = 0;
glyphname = ringcomb;
layers = (
{
anchors = (
{
name = _top;
pos = (146,716);
},
{
name = top;
pos = (154,877);
}
);
layerId = m01;
shapes = (
{
closed = 1;
nodes = (
(236,751,ls),
(256,751,o),
(273,780,o),
(273,801,cs),
(273,851,ls),
(273,875,o),
(254,896,o),
(236,896,cs),
(72,896,ls),
(54,896,o),
(37,880,o),
(37,861,cs),
(37,787,ls),
(37,770,o),
(54,751,o),
(71,751,cs)
);
},
{
closed = 1;
nodes = (
(202,845,o),
(210,840,o),
(210,830,cs),
(210,822,ls),
(210,813,o),
(202,811,o),
(193,811,cs),
(121,811,ls),
(113,811,o),
(103,813,o),
(103,822,cs),
(103,830,ls),
(103,841,o),
(112,845,o),
(121,845,cs),
(194,845,ls)
);
}
);
width = 300;
}
);
unicode = 778;
},
{
color = 0;
glyphname = tildecomb;
layers = (
{
anchors = (
{
name = _top;
pos = (133,716);
},
{
name = top;
pos = (139,874);
}
);
layerId = m01;
shapes = (
{
closed = 1;
nodes = (
(217,752,o),
(236,760,o),
(249,777,cs),
(264,799,o),
(275,830,o),
(275,877,c),
(203,877,l),
(199,855,o),
(201,833,o),
(175,833,cs),
(159,833,o),
(146,845,o),
(133,855,cs),
(118,865,o),
(101,879,o),
(72,879,cs),
(52,879,o),
(30,870,o),
(18,851,cs),
(6,831,o),
(0,802,o),
(0,762,c),
(72,760,l),
(75,780,o),
(78,791,o),
(92,794,cs),
(108,797,o),
(116,778,o),
(139,764,cs),
(154,755,o),
(171,752,o),
(190,752,cs)
);
}
);
width = 275;
}
);
unicode = 771;
},
{
color = 0;
glyphname = macroncomb;
layers = (
{
anchors = (
{
name = _top;
pos = (154,612);
},
{
name = top;
pos = (154,723);
}
);
layerId = m01;
shapes = (
{
closed = 1;
nodes = (
(10,653,l),
(300,654,l),
(299,726,l),
(10,728,l)
);
}
);
width = 310;
}
);
unicode = 772;
},
{
color = 2;
glyphname = macroncomb_gravecomb;
layers = (
{
anchors = (
{
name = _top;
pos = (0,900);
},
{
name = top;
pos = (1,0);
}
);
layerId = m01;
shapes = (
{
closed = 1;
nodes = (
(10,649,l),
(290,650,l),
(289,713,l),
(10,715,l)
);
}
);
width = 300;
}
);
},
{
color = 0;
glyphname = hookabovecomb;
layers = (
{
anchors = (
{
name = _top;
pos = (86,715);
}
);
layerId = m01;
shapes = (
{
closed = 1;
nodes = (
(10,871,l),
(30,890,o),
(50,904,o),
(74,904,cs),
(91,904,o),
(123,893,o),
(123,866,cs),
(123,842,o),
(95,822,o),
(51,821,c),
(51,753,l),
(127,753,l),
(127,794,l),
(179,805,o),
(211,836,o),
(211,876,cs),
(211,930,o),
(166,971,o),
(107,971,cs),
(72,971,o),
(33,958,o),
(10,940,c)
);
}
);
width = 221;
}
);
unicode = 777;
},
{
color = 2;
glyphname = dblgravecomb;
layers = (
{
anchors = (
{
name = _top;
pos = (204,716);
},
{
name = top;
pos = (204,861);
}
);
layerId = m01;
shapes = (
{
closed = 1;
nodes = (
(176,753,l),
(122,866,l),
(10,868,l),
(103,749,l)
);
},
{
closed = 1;
nodes = (
(309,750,l),
(256,864,l),
(144,866,l),
(237,750,l)
);
}
);
width = 319;
}
);
unicode = 783;
},
{
color = 2;
glyphname = candraBinducomb;
layers = (
{
anchors = (
{
name = _top;
pos = (293,636);
},
{
name = top;
}
);
layerId = m01;
shapes = (
{
closed = 1;
nodes = (
(258,886,o),
(272,906,o),
(298,906,cs),
(321,906,o),
(338,889,o),
(338,866,cs),
(338,846,o),
(318,827,o),
(298,827,cs),
(280,827,o),
(258,845,o),
(258,866,cs)
);
},
{
closed = 0;
nodes = (
(4478,2040,l)
);
},
{
closed = 1;
nodes = (
(159,844,l),
(159,804,o),
(176,777,o),
(190,760,cs),
(212,731,o),
(254,717,o),
(300,717,cs),
(339,717,o),
(385,733,o),
(413,766,cs),
(429,786,o),
(434,795,o),
(436,843,c),
(363,843,l),
(359,826,o),
(359,815,o),
(348,805,cs),
(336,795,o),
(318,787,o),
(296,787,cs),
(267,787,o),
(243,809,o),
(236,835,cs),
(233,845,l)
);
}
);
width = 600;
}
);
unicode = 784;
},
{
color = 2;
glyphname = commaabovecomb;
layers = (
{
anchors = (
{
name = _top;
pos = (280,716);
},
{
name = top;
}
);
layerId = m01;
shapes = (
{
closed = 1;
nodes = (
(402,885,l),
(316,887,l),
(267,776,l),
(321,774,l)
);
}
);
width = 600;
}
);
unicode = 787;
},
{
color = 0;
glyphname = horncomb;
layers = (
{
anchors = (
{
name = _horn;
pos = (152,439);
}
);
layerId = m01;
shapes = (
{
closed = 1;
nodes = (
(10,519,l),
(10,439,l),
(121,439,ls),
(208,439,o),
(265,508,o),
(265,589,c),
(147,589,l),
(147,549,o),
(130,519,o),
(85,519,c)
);
}
);
width = 274;
}
);
unicode = 795;
},
{
color = 2;
glyphname = dotbelowcomb;
layers = (
{
anchors = (
{
name = _bottom;
pos = (70,-8);
}
);
layerId = m01;
shapes = (
{
closed = 1;
nodes = (
(92,-160,o),
(131,-139,o),
(131,-99,cs),
(131,-69,o),
(103,-39,o),
(71,-39,cs),
(36,-39,o),
(10,-67,o),
(10,-99,cs),
(10,-132,o),
(32,-160,o),
(70,-160,cs)
);
}
);
width = 141;
}
);
unicode = 803;
},
{
color = 0;
glyphname = commaaccentcomb;
layers = (
{
anchors = (
{
name = _bottom;
pos = (151,0);
},
{
name = bottom;
pos = (142,-180);
}
);
layerId = m01;
shapes = (
{
closed = 1;
nodes = (
(77,-180,l),
(160,-180,l),
(199,-64,l),
(151,-61,l)
);
}
);
width = 300;
}
);
unicode = 806;
},
{
color = 0;
glyphname = cedillacomb;
layers = (
{
anchors = (
{
name = _bottom;
pos = (100,0);
},
{
name = bottom;
pos = (-81,0);
}
);
layerId = m01;
shapes = (
{
closed = 1;
nodes = (
(29,-196,o),
(64,-209,o),
(95,-209,cs),
(152,-209,o),
(201,-169,o),
(201,-113,cs),
(201,-77,o),
(180,-42,o),
(132,-31,c),
(161,0,l),
(71,0,l),
(29,-62,l),
(77,-63,o),
(114,-84,o),
(114,-113,cs),
(114,-135,o),
(95,-146,o),
(73,-146,cs),
(52,-146,o),
(26,-131,o),
(10,-107,c),
(10,-178,l)
);
}
);
width = 211;
}
);
unicode = 807;
},
{
color = 0;
glyphname = ogonekcomb;
layers = (
{
anchors = (
{
name = _ogonek;
pos = (226,0);
}
);
layerId = m01;
shapes = (
{
closed = 1;
nodes = (
(99,0,l),
(77,-16,o),
(58,-43,o),
(58,-77,cs),
(58,-134,o),
(107,-168,o),
(164,-168,cs),
(195,-168,o),
(230,-155,o),
(249,-138,c),
(249,-80,l),
(233,-94,o),
(215,-104,o),
(195,-104,cs),
(168,-103,o),
(148,-91,o),
(143,-63,cs),
(140,-42,o),
(161,0,o),
(226,0,c)
);
}
);
width = 300;
}
);
unicode = 808;
},
{
color = 2;
glyphname = verticallinebelowcomb;
layers = (
{
anchors = (
{
name = _bottom;
},
{
name = bottom;
}
);
layerId = m01;
shapes = (
{
closed = 1;
nodes = (
(325,-69,l),
(342,-212,l),
(259,-210,l),
(277,-69,l)
);
}
);
width = 600;
}
);
unicode = 809;
},
{
color = 2;
glyphname = circumflexbelowcomb;
layers = (
{
anchors = (
{
name = _bottom;
pos = (280,0);
},
{
name = bottom;
pos = (281,0);
}
);
layerId = m01;
shapes = (
{
closed = 1;
nodes = (
(415,-165,l),
(338,-34,l),
(210,-35,l),
(138,-163,l),
(219,-165,l),
(272,-91,l),
(335,-166,l)
);
}
);
width = 600;
}
);
unicode = 813;
},
{
color = 2;
glyphname = tildebelowcomb;
layers = (
{
anchors = (
{
name = _bottom;
pos = (191,0);
},
{
name = bottom;
pos = (172,-168);
}
);
layerId = m01;
shapes = (
{
closed = 1;
nodes = (
(252,-168,o),
(271,-160,o),
(284,-143,cs),
(299,-121,o),
(310,-90,o),
(310,-43,c),
(238,-43,l),
(234,-65,o),
(236,-87,o),
(210,-87,cs),
(194,-87,o),
(181,-75,o),
(168,-65,cs),
(153,-55,o),
(136,-41,o),
(107,-41,cs),
(87,-41,o),
(65,-50,o),
(53,-69,cs),
(41,-89,o),
(35,-118,o),
(35,-158,c),
(107,-160,l),
(110,-140,o),
(113,-129,o),
(127,-126,cs),
(143,-123,o),
(151,-142,o),
(174,-156,cs),
(189,-165,o),
(206,-168,o),
(225,-168,cs)
);
}
);
width = 344;
}
);
unicode = 816;
},
{
color = 2;
glyphname = lowlinecomb;
layers = (
{
anchors = (
{
name = _bottom;
pos = (185,0);
},
{
name = bottom;
pos = (185,-154);
}
);
layerId = m01;
shapes = (
{
closed = 1;
nodes = (
(32,-154,l),
(338,-154,l),
(338,-100,l),
(32,-100,l)
);
}
);
width = 370;
}
);
unicode = 818;
},
{
color = 2;
glyphname = dotaboverightcomb;
layers = (
{
layerId = m01;
shapes = (
{
closed = 1;
nodes = (
(32,607,l),
(128,607,l),
(128,716,l),
(32,716,l)
);
}
);
width = 160;
}
);
unicode = 856;
},
{
color = 2;
glyphname = acutemacroncomb;
layers = (
{
anchors = (
{
name = _top;
pos = (208,900);
},
{
name = top;
pos = (208,716);
}
);
layerId = m01;
shapes = (
{
closed = 1;
nodes = (
(170,716,l),
(232,716,l),
(383,716,l),
(383,604,l),
(200,604,l),
(71,487,l),
(32,576,l)
);
}
);
width = 415;
}
);
unicode = 7623;
},
{
glyphname = brevecomb_acutecomb;
layers = (
{
layerId = m01;
shapes = (
{
pos = (4,0);
ref = brevecomb;
},
{
closed = 1;
nodes = (
(272,993,l),
(177,995,l),
(115,899,l),
(184,900,l)
);
}
);
width = 302;
}
);
},
{
glyphname = brevecomb_gravecomb;
layers = (
{
anchors = (
{
name = _top;
pos = (149,716);
}
);
layerId = m01;
shapes = (
{
closed = 1;
nodes = (
(190,901,l),
(129,996,l),
(29,998,l),
(116,901,l)
);
},
{
ref = brevecomb;
}
);
width = 302;
}
);
},
{
glyphname = brevecomb_tildecomb;
layers = (
{
anchors = (
{
name = _top;
pos = (123,716);
},
{
name = top;
pos = (112,855);
}
);
layerId = m01;
shapes = (
{
closed = 1;
nodes = (
(10,872,l),
(10,832,o),
(25,805,o),
(37,788,cs),
(56,759,o),
(93,745,o),
(133,745,cs),
(167,745,o),
(207,761,o),
(232,794,cs),
(246,814,o),
(250,823,o),
(252,871,c),
(179,871,l),
(176,854,o),
(176,843,o),
(167,833,cs),
(159,823,o),
(146,815,o),
(130,815,cs),
(109,815,o),
(87,833,o),
(87,854,cs),
(85,873,l)
);
},
{
closed = 1;
nodes = (
(214,893,o),
(232,900,o),
(244,916,cs),
(258,937,o),
(269,966,o),
(269,1010,c),
(201,1010,l),
(197,990,o),
(199,969,o),
(175,969,cs),
(160,969,o),
(147,980,o),
(135,990,cs),
(121,999,o),
(105,1012,o),
(78,1012,cs),
(59,1012,o),
(38,1004,o),
(27,986,cs),
(16,967,o),
(10,940,o),
(10,902,c),
(78,900,l),
(81,919,o),
(83,929,o),
(97,932,cs),
(112,935,o),
(119,917,o),
(141,904,cs),
(155,896,o),
(171,893,o),
(189,893,cs)
);
}
);
width = 279;
}
);
},
{
glyphname = circumflexcomb_acutecomb;
layers = (
{
anchors = (
{
name = _top;
pos = (216,716);
},
{
name = top;
pos = (66,0);
}
);
layerId = m01;
shapes = (
{
closed = 1;
nodes = (
(175,956,l),
(72,958,l),
(10,862,l),
(87,863,l)
);
},
{
closed = 1;
nodes = (
(75,754,l),
(157,754,l),
(213,817,l),
(277,750,l),
(357,750,l),
(279,881,l),
(149,881,l)
);
}
);
width = 367;
}
);
},
{
glyphname = circumflexcomb_gravecomb;
layers = (
{
anchors = (
{
name = _top;
pos = (143,716);
},
{
name = top;
pos = (-7,0);
}
);
layerId = m01;
shapes = (
{
closed = 1;
nodes = (
(10,757,l),
(88,757,l),
(148,820,l),
(212,753,l),
(293,753,l),
(215,884,l),
(84,884,l)
);
},
{
closed = 1;
nodes = (
(346,872,l),
(284,969,l),
(182,971,l),
(270,872,l)
);
}
);
width = 356;
}
);
},
{
glyphname = circumflexcomb_hookabovecomb;
layers = (
{
anchors = (
{
name = _top;
pos = (150,716);
},
{
name = top;
}
);
layerId = m01;
shapes = (
{
closed = 1;
nodes = (
(10,757,l),
(92,757,l),
(148,820,l),
(212,753,l),
(292,753,l),
(214,884,l),
(84,884,l)
);
},
{
closed = 1;
nodes = (
(246,927,l),
(265,945,o),
(284,958,o),
(306,958,cs),
(322,958,o),
(352,948,o),
(352,922,cs),
(352,900,o),
(326,881,o),
(285,880,c),
(285,816,l),
(356,816,l),
(356,854,l),
(405,865,o),
(435,894,o),
(435,932,cs),
(435,982,o),
(393,1021,o),
(337,1021,cs),
(304,1021,o),
(268,1009,o),
(246,992,c)
);
}
);
width = 445;
}
);
},
{
color = 2;
glyphname = gravemacroncomb;
layers = (
{
anchors = (
{
name = _top;
pos = (213,900);
},
{
name = top;
pos = (213,716);
}
);
layerId = m01;
shapes = (
{
closed = 1;
nodes = (
(71,716,l),
(200,599,l),
(393,599,l),
(393,547,l),
(242,547,l),
(170,547,l),
(32,687,l)
);
}
);
width = 425;
}
);
unicode = 7621;
},
{
color = 2;
glyphname = macronacutecomb;
layers = (
{
anchors = (
{
name = _top;
pos = (213,900);
},
{
name = top;
pos = (213,716);
}
);
layerId = m01;
shapes = (
{
closed = 1;
nodes = (
(255,547,l),
(183,547,l),
(32,547,l),
(32,599,l),
(225,599,l),
(354,716,l),
(393,687,l)
);
}
);
width = 425;
}
);
unicode = 7620;
},
{
color = 2;
glyphname = macrongravecomb;
layers = (
{
anchors = (
{
name = _top;
pos = (208,900);
},
{
name = top;
pos = (208,716);
}
);
layerId = m01;
shapes = (
{
closed = 1;
nodes = (
(344,547,l),
(215,664,l),
(32,664,l),
(32,716,l),
(183,716,l),
(245,716,l),
(383,576,l)
);
}
);
width = 415;
}
);
unicode = 7622;
},
{
color = 5;
glyphname = _part.cut;
lastChange = "2023-12-05 14:55:56 +0000";
layers = (
{
layerId = m01;
shapes = (
{
closed = 1;
nodes = (
(0,159,l),
(0,159,o),
(24,90,o),
(24,80,cs),
(24,70,o),
(0,0,o),
(0,0,c)
);
}
);
width = 600;
},
{
associatedMasterId = m01;
attr = {
coordinates = (
50
);
};
layerId = "10F08360-6109-434E-9082-BEA660E032D2";
name = "{700, 1} Nov 20, 23 at 14:27";
shapes = (
{
closed = 1;
nodes = (
(0,159,l),
(29,159,o),
(45,131,o),
(66,80,c),
(45,29,o),
(29,0,o),
(0,0,c)
);
}
);
width = 600;
},
{
associatedMasterId = m01;
attr = {
coordinates = (
100
);
};
layerId = "2AF8FCD9-7FCB-4A1D-97FB-39C62E7F585B";
name = "{700, 2} Nov 15, 23 at 14:40";
shapes = (
{
closed = 1;
nodes = (
(0,159,l),
(23,124,o),
(45,110,o),
(114,129,c),
(64,26,o),
(29,0,o),
(0,0,c)
);
}
);
width = 600;
}
);
},
{
glyphname = hooktop.part;
lastChange = "2023-12-05 14:11:41 +0000";
layers = (
{
anchors = (
{
name = _hooktop;
pos = (90,564);
}
);
layerId = m01;
shapes = (
{
closed = 1;
nodes = (
(90,564,l),
(90,626,ls),
(90,687,o),
(101,720,o),
(169,728,c),
(169,840,l),
(72,840,o),
(12,776,o),
(27,681,c),
(10,564,l)
);
}
);
width = 179;
}
);
},
{
export = 0;
glyphname = cutdetail.part;
lastChange = "2023-12-01 09:40:18 +0000";
layers = (
{
layerId = m01;
shapes = (
{
closed = 1;
nodes = (
(391,409,l),
(391,434,l),
(370,434,o),
(349,443,o),
(345,496,c),
(338,496,l),
(334,443,o),
(313,434,o),
(292,434,c),
(292,409,l)
);
}
